<svg xmlns="http://www.w3.org/2000/svg" xmlns:xlink="http://www.w3.org/1999/xlink" width="1654" zoomAndPan="magnify" viewBox="0 0 1240.5 273.749983" height="365" preserveAspectRatio="xMidYMid meet" version="1.2"><defs><clipPath id="d7a53d0e34"><path d="M 0.316406 0 L 1239.683594 0 L 1239.683594 273.5 L 0.316406 273.5 Z M 0.316406 0 "/></clipPath><clipPath id="4a320656b9"><path d="M 0.316406 45 L 55 45 L 55 133 L 0.316406 133 Z M 0.316406 45 "/></clipPath><clipPath id="b6af5092ae"><path d="M 179 121 L 238.597656 121 L 238.597656 213 L 179 213 Z M 179 121 "/></clipPath><clipPath id="095375b041"><path d="M 93 39 L 238.597656 39 L 238.597656 165 L 93 165 Z M 93 39 "/></clipPath><clipPath id="5b7729c331"><path d="M 0.316406 124 L 35 124 L 35 179 L 0.316406 179 Z M 0.316406 124 "/></clipPath></defs><g id="741f807af3"><g clip-rule="nonzero" clip-path="url(#d7a53d0e34)"><path style=" stroke:none;fill-rule:nonzero;fill:none;fill-opacity:1;" d="M 0.316406 0 L 1239.683594 0 L 1239.683594 273.5 L 0.316406 273.5 Z M 0.316406 0 "/></g><g clip-rule="nonzero" clip-path="url(#4a320656b9)"><path style=" stroke:none;fill-rule:nonzero;fill:#ffbc2e;fill-opacity:1;" d="M 49.289062 131.726562 C 50.027344 132.214844 51.011719 132.125 51.652344 131.507812 L 54.851562 128.417969 C 54.757812 128.292969 54.648438 128.179688 54.558594 128.054688 C 45.121094 114.875 24.003906 81.945312 20.3125 47.238281 C 20.15625 45.785156 18.546875 45.058594 17.335938 45.875 C 7.082031 52.789062 0.328125 64.496094 0.328125 77.792969 L 0.328125 98.289062 C 0.328125 98.925781 0.648438 99.519531 1.179688 99.871094 L 49.289062 131.726562 "/></g><g clip-rule="nonzero" clip-path="url(#b6af5092ae)"><path style=" stroke:none;fill-rule:nonzero;fill:#5db3ff;fill-opacity:1;" d="M 235.402344 121.71875 L 180.386719 174.835938 C 179.515625 175.675781 179.648438 177.105469 180.65625 177.777344 L 232.121094 211.925781 C 233.066406 212.550781 234.386719 212.230469 234.875 211.203125 C 237.269531 206.1875 238.613281 200.574219 238.613281 194.644531 L 238.613281 123.082031 C 238.613281 121.410156 236.605469 120.558594 235.402344 121.71875 "/></g><g clip-rule="nonzero" clip-path="url(#095375b041)"><path style=" stroke:none;fill-rule:nonzero;fill:#acde50;fill-opacity:1;" d="M 200.121094 39.296875 L 176.167969 39.296875 C 175.675781 39.296875 175.207031 39.488281 174.851562 39.832031 L 94.230469 117.671875 C 93.359375 118.511719 93.488281 119.945312 94.5 120.613281 L 160.679688 164.527344 C 161.421875 165.019531 162.40625 164.925781 163.046875 164.308594 L 200.117188 128.515625 C 200.988281 127.671875 200.855469 126.238281 199.847656 125.570312 L 167.015625 103.835938 C 166.003906 103.167969 165.875 101.734375 166.746094 100.890625 L 178.40625 89.636719 C 179.042969 89.019531 180.027344 88.929688 180.765625 89.421875 L 215 112.085938 C 215.738281 112.578125 216.722656 112.488281 217.363281 111.867188 L 238.035156 91.90625 C 238.40625 91.550781 238.613281 91.058594 238.613281 90.546875 L 238.613281 77.792969 C 238.613281 56.53125 221.378906 39.296875 200.121094 39.296875 "/></g><path style=" stroke:none;fill-rule:nonzero;fill:#5db3ff;fill-opacity:1;" d="M 113.191406 72.089844 L 143.78125 42.558594 C 145.007812 41.371094 144.171875 39.296875 142.464844 39.296875 L 117.242188 39.296875 C 116.234375 39.296875 115.421875 40.089844 115.378906 41.097656 C 114.9375 50.996094 112.941406 60.816406 110.082031 70.179688 C 109.507812 72.050781 111.78125 73.453125 113.191406 72.089844 "/><g clip-rule="nonzero" clip-path="url(#5b7729c331)"><path style=" stroke:none;fill-rule:nonzero;fill:#acde50;fill-opacity:1;" d="M 34.410156 148.15625 C 35.28125 147.3125 35.148438 145.878906 34.140625 145.210938 L 3.269531 124.777344 C 2.011719 123.941406 0.328125 124.847656 0.328125 126.355469 L 0.328125 176.59375 C 0.328125 178.269531 2.335938 179.121094 3.539062 177.957031 L 34.410156 148.15625 "/></g><path style=" stroke:none;fill-rule:nonzero;fill:#ffbc2e;fill-opacity:1;" d="M 139.71875 174.15625 C 138.976562 173.664062 137.992188 173.753906 137.355469 174.371094 L 79.859375 229.882812 C 78.632812 231.066406 79.472656 233.140625 81.175781 233.140625 L 132.617188 233.140625 C 133.871094 233.140625 135.0625 233.691406 135.878906 234.644531 L 166.253906 270.285156 C 168.835938 273.316406 173.792969 271.488281 173.792969 267.507812 L 173.792969 237.425781 C 173.792969 235.058594 175.710938 233.140625 178.078125 233.140625 L 200.121094 233.140625 C 206.289062 233.140625 212.101562 231.664062 217.261719 229.078125 C 218.585938 228.414062 218.742188 226.589844 217.503906 225.769531 L 139.71875 174.15625 "/><path style=" stroke:none;fill-rule:nonzero;fill:#5db3ff;fill-opacity:1;" d="M 119.742188 160.902344 L 79.347656 134.101562 C 78.609375 133.609375 77.625 133.699219 76.984375 134.320312 L 3.101562 205.652344 C 2.558594 206.171875 2.359375 206.976562 2.613281 207.683594 C 7.957031 222.523438 22.144531 233.140625 38.824219 233.140625 L 47.472656 233.140625 C 47.964844 233.140625 48.4375 232.949219 48.792969 232.609375 L 120.011719 163.84375 C 120.882812 163.003906 120.753906 161.574219 119.742188 160.902344 "/><path style=" stroke:none;fill-rule:nonzero;fill:#fb4d48;fill-opacity:1;" d="M 67.617188 51.351562 C 59.710938 51.351562 53.304688 44.945312 53.304688 37.039062 C 53.304688 29.136719 59.710938 22.726562 67.617188 22.726562 C 75.519531 22.726562 81.929688 29.136719 81.929688 37.039062 C 81.929688 44.945312 75.519531 51.351562 67.617188 51.351562 Z M 30.839844 39.105469 C 31.738281 73.625 54.234375 108.515625 63.589844 121.582031 C 65.566406 124.34375 69.644531 124.367188 71.625 121.609375 C 81.160156 108.292969 104.421875 72.210938 104.421875 36.984375 C 104.421875 16.660156 87.945312 0.183594 67.625 0.179688 C 46.136719 0.175781 30.304688 18.597656 30.839844 39.105469 "/><g style="fill:#ffffff;fill-opacity:1;"><g transform="translate(302.207341, 150.049745)"><path style="stroke:none" d="M 37.796875 1.5625 C 31.816406 1.5625 26.628906 0.585938 22.234375 -1.359375 C 17.847656 -3.316406 14.234375 -5.988281 11.390625 -9.375 C 8.554688 -12.757812 6.4375 -16.648438 5.03125 -21.046875 C 3.625 -25.441406 2.921875 -30.078125 2.921875 -34.953125 C 2.921875 -39.835938 3.625 -44.457031 5.03125 -48.8125 C 6.4375 -53.175781 8.554688 -57.050781 11.390625 -60.4375 C 14.234375 -63.832031 17.847656 -66.488281 22.234375 -68.40625 C 26.628906 -70.332031 31.816406 -71.296875 37.796875 -71.296875 C 43.953125 -71.296875 49.210938 -70.238281 53.578125 -68.125 C 57.941406 -66.019531 61.40625 -63.09375 63.96875 -59.34375 C 66.53125 -55.59375 68.117188 -51.21875 68.734375 -46.21875 L 50.796875 -46.21875 C 50.304688 -49.8125 48.820312 -52.445312 46.34375 -54.125 C 43.875 -55.800781 40.90625 -56.640625 37.4375 -56.640625 C 31.882812 -56.640625 27.625 -54.671875 24.65625 -50.734375 C 21.695312 -46.804688 20.21875 -41.546875 20.21875 -34.953125 C 20.21875 -28.304688 21.695312 -23 24.65625 -19.03125 C 27.625 -15.070312 31.882812 -13.09375 37.4375 -13.09375 C 40.90625 -13.09375 43.859375 -13.945312 46.296875 -15.65625 C 48.742188 -17.363281 50.242188 -20.046875 50.796875 -23.703125 L 68.734375 -23.703125 C 68.117188 -18.703125 66.53125 -14.296875 63.96875 -10.484375 C 61.40625 -6.671875 57.941406 -3.707031 53.578125 -1.59375 C 49.210938 0.507812 43.953125 1.5625 37.796875 1.5625 Z M 37.796875 1.5625 "/></g></g><g style="fill:#ffffff;fill-opacity:1;"><g transform="translate(378.04553, 150.049745)"><path style="stroke:none" d="M 21.875 0 L 5.484375 0 L 5.484375 -69.828125 L 21.875 -69.828125 L 21.875 -42.1875 L 48.40625 -42.1875 L 48.40625 -69.828125 L 64.796875 -69.828125 L 64.796875 0 L 48.40625 0 L 48.40625 -27.546875 L 21.875 -27.546875 Z M 21.875 0 "/></g></g><g style="fill:#ffffff;fill-opacity:1;"><g transform="translate(453.060415, 150.049745)"><path style="stroke:none" d="M 53.171875 0 L 5.484375 0 L 5.484375 -69.828125 L 53.171875 -69.828125 L 53.171875 -55.1875 L 21.875 -55.1875 L 21.875 -42.1875 L 50.15625 -42.1875 L 50.15625 -27.640625 L 21.875 -27.640625 L 21.875 -14.640625 L 53.171875 -14.640625 Z M 53.171875 0 "/></g></g><g style="fill:#ffffff;fill-opacity:1;"><g transform="translate(514.719346, 150.049745)"><path style="stroke:none" d="M 21.875 0 L 5.484375 0 L 5.484375 -69.828125 L 31.84375 -69.828125 L 43.375 -19.578125 L 54.8125 -69.828125 L 81.265625 -69.828125 L 81.265625 0 L 64.890625 0 L 64.890625 -56.734375 L 51.34375 0 L 35.421875 0 L 21.875 -56.375 Z M 21.875 0 "/></g></g><g style="fill:#ffffff;fill-opacity:1;"><g transform="translate(606.108943, 150.049745)"><path style="stroke:none" d="M 21.875 0 L 5.484375 0 L 5.484375 -69.828125 L 22.140625 -69.828125 L 48.953125 -27.453125 L 48.953125 -69.828125 L 65.34375 -69.828125 L 65.34375 0 L 48.6875 0 L 21.875 -42.640625 Z M 21.875 0 "/></g></g><g style="fill:#ffffff;fill-opacity:1;"><g transform="translate(681.489738, 150.049745)"><path style="stroke:none" d="M 21.875 0 L 5.484375 0 L 5.484375 -69.828125 L 21.875 -69.828125 Z M 21.875 0 "/></g></g><g style="fill:#ffffff;fill-opacity:1;"><g transform="translate(713.509493, 150.049745)"><path style="stroke:none" d="M 36.796875 0 L 20.40625 0 L 20.40625 -55.1875 L 0.734375 -55.1875 L 0.734375 -69.828125 L 56.46875 -69.828125 L 56.46875 -55.1875 L 36.796875 -55.1875 Z M 36.796875 0 "/></g></g><g style="fill:#ffffff;fill-opacity:1;"><g transform="translate(775.259913, 150.049745)"><path style="stroke:none" d="M 54.265625 0 L 2.375 0 L 2.375 -11.078125 L 33.40625 -55.1875 L 4.296875 -55.1875 L 4.296875 -69.828125 L 54.078125 -69.828125 L 54.078125 -58.203125 L 23.609375 -14.640625 L 54.265625 -14.640625 Z M 54.265625 0 "/></g></g><g style="fill:#ffffff;fill-opacity:1;"><g transform="translate(845.915767, 150.049745)"><path style="stroke:none" d="M 7.96875 0 L 1.46875 0 L 27.828125 -69.828125 L 35.140625 -69.828125 L 61.5 0 L 55 0 L 47.953125 -18.859375 L 15.015625 -18.859375 Z M 31.484375 -63.328125 L 17.015625 -24.53125 L 45.9375 -24.53125 Z M 31.484375 -63.328125 "/></g></g><g style="fill:#ffffff;fill-opacity:1;"><g transform="translate(915.25979, 150.049745)"><path style="stroke:none" d="M 32.125 0 L 25.8125 0 L 25.8125 -64.15625 L 1.28125 -64.15625 L 1.28125 -69.828125 L 56.734375 -69.828125 L 56.734375 -64.15625 L 32.125 -64.15625 Z M 32.125 0 "/></g></g><g style="fill:#ffffff;fill-opacity:1;"><g transform="translate(979.663948, 150.049745)"><path style="stroke:none" d="M 45.578125 0 L 7.234375 0 L 7.234375 -69.828125 L 13.546875 -69.828125 L 13.546875 -5.671875 L 45.578125 -5.671875 Z M 45.578125 0 "/></g></g><g style="fill:#ffffff;fill-opacity:1;"><g transform="translate(1032.999168, 150.049745)"><path style="stroke:none" d="M 7.96875 0 L 1.46875 0 L 27.828125 -69.828125 L 35.140625 -69.828125 L 61.5 0 L 55 0 L 47.953125 -18.859375 L 15.015625 -18.859375 Z M 31.484375 -63.328125 L 17.015625 -24.53125 L 45.9375 -24.53125 Z M 31.484375 -63.328125 "/></g></g><g style="fill:#ffffff;fill-opacity:1;"><g transform="translate(1102.34319, 150.049745)"><path style="stroke:none" d="M 31.03125 0.921875 C 26.632812 0.921875 22.515625 0.21875 18.671875 -1.1875 C 14.828125 -2.59375 11.609375 -4.820312 9.015625 -7.875 C 6.421875 -10.925781 4.726562 -14.890625 3.9375 -19.765625 L 10.34375 -19.765625 C 11.007812 -15.984375 12.425781 -12.992188 14.59375 -10.796875 C 16.757812 -8.597656 19.335938 -7.039062 22.328125 -6.125 C 25.316406 -5.21875 28.367188 -4.765625 31.484375 -4.765625 C 37.035156 -4.765625 41.332031 -6.046875 44.375 -8.609375 C 47.425781 -11.171875 48.953125 -14.707031 48.953125 -19.21875 C 48.953125 -21.84375 48.40625 -23.992188 47.3125 -25.671875 C 46.21875 -27.347656 44.722656 -28.703125 42.828125 -29.734375 C 40.941406 -30.773438 38.820312 -31.613281 36.46875 -32.25 C 34.125 -32.894531 31.671875 -33.492188 29.109375 -34.046875 C 26.359375 -34.648438 23.65625 -35.316406 21 -36.046875 C 18.34375 -36.785156 15.929688 -37.78125 13.765625 -39.03125 C 11.609375 -40.28125 9.890625 -41.972656 8.609375 -44.109375 C 7.328125 -46.242188 6.6875 -48.988281 6.6875 -52.34375 C 6.6875 -56.125 7.675781 -59.382812 9.65625 -62.125 C 11.632812 -64.875 14.332031 -66.992188 17.75 -68.484375 C 21.164062 -69.984375 25.039062 -70.734375 29.375 -70.734375 C 35.476562 -70.734375 40.664062 -69.222656 44.9375 -66.203125 C 49.207031 -63.191406 51.890625 -58.269531 52.984375 -51.4375 L 46.953125 -51.4375 C 45.972656 -56.4375 43.910156 -59.957031 40.765625 -62 C 37.628906 -64.039062 33.800781 -65.0625 29.28125 -65.0625 C 24.519531 -65.0625 20.613281 -63.960938 17.5625 -61.765625 C 14.519531 -59.578125 13 -56.585938 13 -52.796875 C 13 -49.753906 13.878906 -47.394531 15.640625 -45.71875 C 17.410156 -44.039062 19.710938 -42.773438 22.546875 -41.921875 C 25.390625 -41.066406 28.398438 -40.269531 31.578125 -39.53125 C 34.441406 -38.925781 37.257812 -38.222656 40.03125 -37.421875 C 42.8125 -36.628906 45.359375 -35.53125 47.671875 -34.125 C 49.992188 -32.726562 51.84375 -30.867188 53.21875 -28.546875 C 54.59375 -26.234375 55.28125 -23.21875 55.28125 -19.5 C 55.28125 -13.394531 53.21875 -8.460938 49.09375 -4.703125 C 44.976562 -0.953125 38.957031 0.921875 31.03125 0.921875 Z M 31.03125 0.921875 "/></g></g><g style="fill:#ffffff;fill-opacity:1;"><g transform="translate(367.053544, 205.812697)"><path style="stroke:none" d="M 15.421875 -3.84375 C 15.554688 -3.84375 15.675781 -3.785156 15.78125 -3.671875 L 16.78125 -2.59375 C 16.019531 -1.707031 15.097656 -1.019531 14.015625 -0.53125 C 12.929688 -0.0390625 11.617188 0.203125 10.078125 0.203125 C 8.742188 0.203125 7.53125 -0.0234375 6.4375 -0.484375 C 5.351562 -0.953125 4.425781 -1.601562 3.65625 -2.4375 C 2.882812 -3.269531 2.285156 -4.269531 1.859375 -5.4375 C 1.441406 -6.601562 1.234375 -7.882812 1.234375 -9.28125 C 1.234375 -10.6875 1.453125 -11.972656 1.890625 -13.140625 C 2.335938 -14.304688 2.957031 -15.304688 3.75 -16.140625 C 4.550781 -16.984375 5.507812 -17.632812 6.625 -18.09375 C 7.738281 -18.5625 8.972656 -18.796875 10.328125 -18.796875 C 11.648438 -18.796875 12.816406 -18.582031 13.828125 -18.15625 C 14.835938 -17.726562 15.726562 -17.15625 16.5 -16.4375 L 15.671875 -15.28125 C 15.617188 -15.1875 15.550781 -15.113281 15.46875 -15.0625 C 15.382812 -15.007812 15.273438 -14.984375 15.140625 -14.984375 C 14.984375 -14.984375 14.789062 -15.066406 14.5625 -15.234375 C 14.34375 -15.398438 14.050781 -15.585938 13.6875 -15.796875 C 13.320312 -16.003906 12.863281 -16.191406 12.3125 -16.359375 C 11.769531 -16.523438 11.101562 -16.609375 10.3125 -16.609375 C 9.351562 -16.609375 8.472656 -16.441406 7.671875 -16.109375 C 6.878906 -15.773438 6.195312 -15.289062 5.625 -14.65625 C 5.050781 -14.03125 4.601562 -13.265625 4.28125 -12.359375 C 3.957031 -11.453125 3.796875 -10.425781 3.796875 -9.28125 C 3.796875 -8.125 3.960938 -7.09375 4.296875 -6.1875 C 4.628906 -5.28125 5.082031 -4.507812 5.65625 -3.875 C 6.226562 -3.25 6.90625 -2.769531 7.6875 -2.4375 C 8.476562 -2.113281 9.328125 -1.953125 10.234375 -1.953125 C 10.785156 -1.953125 11.28125 -1.984375 11.71875 -2.046875 C 12.164062 -2.117188 12.578125 -2.222656 12.953125 -2.359375 C 13.335938 -2.492188 13.691406 -2.664062 14.015625 -2.875 C 14.335938 -3.09375 14.660156 -3.347656 14.984375 -3.640625 C 15.128906 -3.773438 15.273438 -3.84375 15.421875 -3.84375 Z M 15.421875 -3.84375 "/></g></g><g style="fill:#ffffff;fill-opacity:1;"><g transform="translate(397.837623, 205.812697)"><path style="stroke:none" d="M 9.546875 -2 C 10.316406 -2 11.003906 -2.128906 11.609375 -2.390625 C 12.210938 -2.648438 12.722656 -3.007812 13.140625 -3.46875 C 13.554688 -3.9375 13.875 -4.492188 14.09375 -5.140625 C 14.320312 -5.796875 14.4375 -6.507812 14.4375 -7.28125 L 14.4375 -18.578125 L 16.9375 -18.578125 L 16.9375 -7.28125 C 16.9375 -6.21875 16.765625 -5.226562 16.421875 -4.3125 C 16.078125 -3.394531 15.585938 -2.597656 14.953125 -1.921875 C 14.316406 -1.253906 13.539062 -0.726562 12.625 -0.34375 C 11.707031 0.03125 10.679688 0.21875 9.546875 0.21875 C 8.398438 0.21875 7.367188 0.03125 6.453125 -0.34375 C 5.535156 -0.726562 4.757812 -1.253906 4.125 -1.921875 C 3.488281 -2.597656 3 -3.394531 2.65625 -4.3125 C 2.3125 -5.226562 2.140625 -6.21875 2.140625 -7.28125 L 2.140625 -18.578125 L 4.640625 -18.578125 L 4.640625 -7.296875 C 4.640625 -6.523438 4.75 -5.8125 4.96875 -5.15625 C 5.1875 -4.507812 5.503906 -3.953125 5.921875 -3.484375 C 6.347656 -3.015625 6.863281 -2.648438 7.46875 -2.390625 C 8.082031 -2.128906 8.773438 -2 9.546875 -2 Z M 9.546875 -2 "/></g></g><g style="fill:#ffffff;fill-opacity:1;"><g transform="translate(430.372293, 205.812697)"><path style="stroke:none" d="M 12.921875 -2.109375 L 12.921875 0 L 2.375 0 L 2.375 -18.578125 L 4.875 -18.578125 L 4.875 -2.109375 Z M 12.921875 -2.109375 "/></g></g><g style="fill:#ffffff;fill-opacity:1;"><g transform="translate(457.14952, 205.812697)"><path style="stroke:none" d="M 14.9375 -16.46875 L 8.921875 -16.46875 L 8.921875 0 L 6.421875 0 L 6.421875 -16.46875 L 0.390625 -16.46875 L 0.390625 -18.578125 L 14.9375 -18.578125 Z M 14.9375 -16.46875 "/></g></g><g style="fill:#ffffff;fill-opacity:1;"><g transform="translate(485.923676, 205.812697)"><path style="stroke:none" d="M 9.546875 -2 C 10.316406 -2 11.003906 -2.128906 11.609375 -2.390625 C 12.210938 -2.648438 12.722656 -3.007812 13.140625 -3.46875 C 13.554688 -3.9375 13.875 -4.492188 14.09375 -5.140625 C 14.320312 -5.796875 14.4375 -6.507812 14.4375 -7.28125 L 14.4375 -18.578125 L 16.9375 -18.578125 L 16.9375 -7.28125 C 16.9375 -6.21875 16.765625 -5.226562 16.421875 -4.3125 C 16.078125 -3.394531 15.585938 -2.597656 14.953125 -1.921875 C 14.316406 -1.253906 13.539062 -0.726562 12.625 -0.34375 C 11.707031 0.03125 10.679688 0.21875 9.546875 0.21875 C 8.398438 0.21875 7.367188 0.03125 6.453125 -0.34375 C 5.535156 -0.726562 4.757812 -1.253906 4.125 -1.921875 C 3.488281 -2.597656 3 -3.394531 2.65625 -4.3125 C 2.3125 -5.226562 2.140625 -6.21875 2.140625 -7.28125 L 2.140625 -18.578125 L 4.640625 -18.578125 L 4.640625 -7.296875 C 4.640625 -6.523438 4.75 -5.8125 4.96875 -5.15625 C 5.1875 -4.507812 5.503906 -3.953125 5.921875 -3.484375 C 6.347656 -3.015625 6.863281 -2.648438 7.46875 -2.390625 C 8.082031 -2.128906 8.773438 -2 9.546875 -2 Z M 9.546875 -2 "/></g></g><g style="fill:#ffffff;fill-opacity:1;"><g transform="translate(518.458346, 205.812697)"><path style="stroke:none" d="M 7.515625 -9.578125 C 8.242188 -9.578125 8.882812 -9.664062 9.4375 -9.84375 C 10 -10.019531 10.46875 -10.269531 10.84375 -10.59375 C 11.21875 -10.925781 11.5 -11.316406 11.6875 -11.765625 C 11.882812 -12.210938 11.984375 -12.707031 11.984375 -13.25 C 11.984375 -14.363281 11.617188 -15.195312 10.890625 -15.75 C 10.160156 -16.3125 9.070312 -16.59375 7.625 -16.59375 L 4.875 -16.59375 L 4.875 -9.578125 Z M 16.109375 0 L 13.875 0 C 13.414062 0 13.078125 -0.175781 12.859375 -0.53125 L 8.046875 -7.171875 C 7.890625 -7.378906 7.726562 -7.523438 7.5625 -7.609375 C 7.394531 -7.703125 7.132812 -7.75 6.78125 -7.75 L 4.875 -7.75 L 4.875 0 L 2.375 0 L 2.375 -18.578125 L 7.625 -18.578125 C 8.800781 -18.578125 9.816406 -18.457031 10.671875 -18.21875 C 11.523438 -17.988281 12.226562 -17.644531 12.78125 -17.1875 C 13.34375 -16.738281 13.757812 -16.195312 14.03125 -15.5625 C 14.300781 -14.925781 14.4375 -14.21875 14.4375 -13.4375 C 14.4375 -12.78125 14.332031 -12.164062 14.125 -11.59375 C 13.914062 -11.019531 13.613281 -10.503906 13.21875 -10.046875 C 12.820312 -9.597656 12.34375 -9.210938 11.78125 -8.890625 C 11.21875 -8.578125 10.578125 -8.335938 9.859375 -8.171875 C 10.179688 -7.984375 10.457031 -7.71875 10.6875 -7.375 Z M 16.109375 0 "/></g></g><g style="fill:#ffffff;fill-opacity:1;"><g transform="translate(548.166151, 205.812697)"><path style="stroke:none" d="M 12.25 -6.90625 L 9.328125 -14.453125 C 9.234375 -14.679688 9.140625 -14.941406 9.046875 -15.234375 C 8.953125 -15.535156 8.863281 -15.859375 8.78125 -16.203125 C 8.59375 -15.492188 8.40625 -14.910156 8.21875 -14.453125 L 5.296875 -6.90625 Z M 17.484375 0 L 15.53125 0 C 15.3125 0 15.128906 -0.0546875 14.984375 -0.171875 C 14.847656 -0.285156 14.75 -0.425781 14.6875 -0.59375 L 12.9375 -5.078125 L 4.609375 -5.078125 L 2.859375 -0.59375 C 2.804688 -0.4375 2.707031 -0.296875 2.5625 -0.171875 C 2.414062 -0.0546875 2.234375 0 2.015625 0 L 0.078125 0 L 7.515625 -18.578125 L 10.046875 -18.578125 Z M 17.484375 0 "/></g></g><g style="fill:#ffffff;fill-opacity:1;"><g transform="translate(579.183642, 205.812697)"><path style="stroke:none" d="M 12.921875 -2.109375 L 12.921875 0 L 2.375 0 L 2.375 -18.578125 L 4.875 -18.578125 L 4.875 -2.109375 Z M 12.921875 -2.109375 "/></g></g><g style="fill:#ffffff;fill-opacity:1;"><g transform="translate(605.960869, 205.812697)"><path style="stroke:none" d=""/></g></g><g style="fill:#ffffff;fill-opacity:1;"><g transform="translate(626.059964, 205.812697)"><path style="stroke:none" d="M 15.421875 -3.84375 C 15.554688 -3.84375 15.675781 -3.785156 15.78125 -3.671875 L 16.78125 -2.59375 C 16.019531 -1.707031 15.097656 -1.019531 14.015625 -0.53125 C 12.929688 -0.0390625 11.617188 0.203125 10.078125 0.203125 C 8.742188 0.203125 7.53125 -0.0234375 6.4375 -0.484375 C 5.351562 -0.953125 4.425781 -1.601562 3.65625 -2.4375 C 2.882812 -3.269531 2.285156 -4.269531 1.859375 -5.4375 C 1.441406 -6.601562 1.234375 -7.882812 1.234375 -9.28125 C 1.234375 -10.6875 1.453125 -11.972656 1.890625 -13.140625 C 2.335938 -14.304688 2.957031 -15.304688 3.75 -16.140625 C 4.550781 -16.984375 5.507812 -17.632812 6.625 -18.09375 C 7.738281 -18.5625 8.972656 -18.796875 10.328125 -18.796875 C 11.648438 -18.796875 12.816406 -18.582031 13.828125 -18.15625 C 14.835938 -17.726562 15.726562 -17.15625 16.5 -16.4375 L 15.671875 -15.28125 C 15.617188 -15.1875 15.550781 -15.113281 15.46875 -15.0625 C 15.382812 -15.007812 15.273438 -14.984375 15.140625 -14.984375 C 14.984375 -14.984375 14.789062 -15.066406 14.5625 -15.234375 C 14.34375 -15.398438 14.050781 -15.585938 13.6875 -15.796875 C 13.320312 -16.003906 12.863281 -16.191406 12.3125 -16.359375 C 11.769531 -16.523438 11.101562 -16.609375 10.3125 -16.609375 C 9.351562 -16.609375 8.472656 -16.441406 7.671875 -16.109375 C 6.878906 -15.773438 6.195312 -15.289062 5.625 -14.65625 C 5.050781 -14.03125 4.601562 -13.265625 4.28125 -12.359375 C 3.957031 -11.453125 3.796875 -10.425781 3.796875 -9.28125 C 3.796875 -8.125 3.960938 -7.09375 4.296875 -6.1875 C 4.628906 -5.28125 5.082031 -4.507812 5.65625 -3.875 C 6.226562 -3.25 6.90625 -2.769531 7.6875 -2.4375 C 8.476562 -2.113281 9.328125 -1.953125 10.234375 -1.953125 C 10.785156 -1.953125 11.28125 -1.984375 11.71875 -2.046875 C 12.164062 -2.117188 12.578125 -2.222656 12.953125 -2.359375 C 13.335938 -2.492188 13.691406 -2.664062 14.015625 -2.875 C 14.335938 -3.09375 14.660156 -3.347656 14.984375 -3.640625 C 15.128906 -3.773438 15.273438 -3.84375 15.421875 -3.84375 Z M 15.421875 -3.84375 "/></g></g><g style="fill:#ffffff;fill-opacity:1;"><g transform="translate(656.844043, 205.812697)"><path style="stroke:none" d="M 12.25 -6.90625 L 9.328125 -14.453125 C 9.234375 -14.679688 9.140625 -14.941406 9.046875 -15.234375 C 8.953125 -15.535156 8.863281 -15.859375 8.78125 -16.203125 C 8.59375 -15.492188 8.40625 -14.910156 8.21875 -14.453125 L 5.296875 -6.90625 Z M 17.484375 0 L 15.53125 0 C 15.3125 0 15.128906 -0.0546875 14.984375 -0.171875 C 14.847656 -0.285156 14.75 -0.425781 14.6875 -0.59375 L 12.9375 -5.078125 L 4.609375 -5.078125 L 2.859375 -0.59375 C 2.804688 -0.4375 2.707031 -0.296875 2.5625 -0.171875 C 2.414062 -0.0546875 2.234375 0 2.015625 0 L 0.078125 0 L 7.515625 -18.578125 L 10.046875 -18.578125 Z M 17.484375 0 "/></g></g><g style="fill:#ffffff;fill-opacity:1;"><g transform="translate(687.861534, 205.812697)"><path style="stroke:none" d="M 7.859375 -8.953125 C 8.578125 -8.953125 9.207031 -9.046875 9.75 -9.234375 C 10.300781 -9.421875 10.765625 -9.6875 11.140625 -10.03125 C 11.515625 -10.375 11.796875 -10.78125 11.984375 -11.25 C 12.179688 -11.726562 12.28125 -12.253906 12.28125 -12.828125 C 12.28125 -14.015625 11.914062 -14.9375 11.1875 -15.59375 C 10.457031 -16.257812 9.347656 -16.59375 7.859375 -16.59375 L 4.875 -16.59375 L 4.875 -8.953125 Z M 7.859375 -18.578125 C 9.035156 -18.578125 10.054688 -18.441406 10.921875 -18.171875 C 11.796875 -17.898438 12.515625 -17.515625 13.078125 -17.015625 C 13.648438 -16.515625 14.078125 -15.910156 14.359375 -15.203125 C 14.640625 -14.492188 14.78125 -13.703125 14.78125 -12.828125 C 14.78125 -11.960938 14.628906 -11.171875 14.328125 -10.453125 C 14.023438 -9.734375 13.582031 -9.113281 13 -8.59375 C 12.414062 -8.070312 11.691406 -7.664062 10.828125 -7.375 C 9.972656 -7.09375 8.984375 -6.953125 7.859375 -6.953125 L 4.875 -6.953125 L 4.875 0 L 2.375 0 L 2.375 -18.578125 Z M 7.859375 -18.578125 "/></g></g><g style="fill:#ffffff;fill-opacity:1;"><g transform="translate(716.895056, 205.812697)"><path style="stroke:none" d="M 4.890625 0 L 2.375 0 L 2.375 -18.578125 L 4.890625 -18.578125 Z M 4.890625 0 "/></g></g><g style="fill:#ffffff;fill-opacity:1;"><g transform="translate(737.616594, 205.812697)"><path style="stroke:none" d="M 14.9375 -16.46875 L 8.921875 -16.46875 L 8.921875 0 L 6.421875 0 L 6.421875 -16.46875 L 0.390625 -16.46875 L 0.390625 -18.578125 L 14.9375 -18.578125 Z M 14.9375 -16.46875 "/></g></g><g style="fill:#ffffff;fill-opacity:1;"><g transform="translate(766.390751, 205.812697)"><path style="stroke:none" d="M 12.25 -6.90625 L 9.328125 -14.453125 C 9.234375 -14.679688 9.140625 -14.941406 9.046875 -15.234375 C 8.953125 -15.535156 8.863281 -15.859375 8.78125 -16.203125 C 8.59375 -15.492188 8.40625 -14.910156 8.21875 -14.453125 L 5.296875 -6.90625 Z M 17.484375 0 L 15.53125 0 C 15.3125 0 15.128906 -0.0546875 14.984375 -0.171875 C 14.847656 -0.285156 14.75 -0.425781 14.6875 -0.59375 L 12.9375 -5.078125 L 4.609375 -5.078125 L 2.859375 -0.59375 C 2.804688 -0.4375 2.707031 -0.296875 2.5625 -0.171875 C 2.414062 -0.0546875 2.234375 0 2.015625 0 L 0.078125 0 L 7.515625 -18.578125 L 10.046875 -18.578125 Z M 17.484375 0 "/></g></g><g style="fill:#ffffff;fill-opacity:1;"><g transform="translate(797.408242, 205.812697)"><path style="stroke:none" d="M 12.921875 -2.109375 L 12.921875 0 L 2.375 0 L 2.375 -18.578125 L 4.875 -18.578125 L 4.875 -2.109375 Z M 12.921875 -2.109375 "/></g></g><g style="fill:#ffffff;fill-opacity:1;"><g transform="translate(824.185469, 205.812697)"><path style="stroke:none" d=""/></g></g><g style="fill:#ffffff;fill-opacity:1;"><g transform="translate(844.284564, 205.812697)"><path style="stroke:none" d="M 19.546875 -9.28125 C 19.546875 -7.894531 19.320312 -6.617188 18.875 -5.453125 C 18.4375 -4.285156 17.816406 -3.28125 17.015625 -2.4375 C 16.210938 -1.601562 15.242188 -0.957031 14.109375 -0.5 C 12.984375 -0.0390625 11.738281 0.1875 10.375 0.1875 C 9.007812 0.1875 7.765625 -0.0390625 6.640625 -0.5 C 5.515625 -0.957031 4.550781 -1.601562 3.75 -2.4375 C 2.945312 -3.28125 2.320312 -4.285156 1.875 -5.453125 C 1.4375 -6.617188 1.21875 -7.894531 1.21875 -9.28125 C 1.21875 -10.675781 1.4375 -11.953125 1.875 -13.109375 C 2.320312 -14.273438 2.945312 -15.28125 3.75 -16.125 C 4.550781 -16.96875 5.515625 -17.625 6.640625 -18.09375 C 7.765625 -18.5625 9.007812 -18.796875 10.375 -18.796875 C 11.738281 -18.796875 12.984375 -18.5625 14.109375 -18.09375 C 15.242188 -17.625 16.210938 -16.96875 17.015625 -16.125 C 17.816406 -15.28125 18.4375 -14.273438 18.875 -13.109375 C 19.320312 -11.953125 19.546875 -10.675781 19.546875 -9.28125 Z M 16.96875 -9.28125 C 16.96875 -10.425781 16.8125 -11.453125 16.5 -12.359375 C 16.1875 -13.265625 15.742188 -14.03125 15.171875 -14.65625 C 14.597656 -15.28125 13.90625 -15.757812 13.09375 -16.09375 C 12.28125 -16.4375 11.375 -16.609375 10.375 -16.609375 C 9.382812 -16.609375 8.484375 -16.4375 7.671875 -16.09375 C 6.859375 -15.757812 6.160156 -15.28125 5.578125 -14.65625 C 5.003906 -14.03125 4.5625 -13.265625 4.25 -12.359375 C 3.9375 -11.453125 3.78125 -10.425781 3.78125 -9.28125 C 3.78125 -8.144531 3.9375 -7.125 4.25 -6.21875 C 4.5625 -5.3125 5.003906 -4.546875 5.578125 -3.921875 C 6.160156 -3.296875 6.859375 -2.816406 7.671875 -2.484375 C 8.484375 -2.148438 9.382812 -1.984375 10.375 -1.984375 C 11.375 -1.984375 12.28125 -2.148438 13.09375 -2.484375 C 13.90625 -2.816406 14.597656 -3.296875 15.171875 -3.921875 C 15.742188 -4.546875 16.1875 -5.3125 16.5 -6.21875 C 16.8125 -7.125 16.96875 -8.144531 16.96875 -9.28125 Z M 16.96875 -9.28125 "/></g></g><g style="fill:#ffffff;fill-opacity:1;"><g transform="translate(878.504958, 205.812697)"><path style="stroke:none" d="M 4.890625 -16.53125 L 4.890625 -10.03125 L 12.53125 -10.03125 L 12.53125 -7.984375 L 4.890625 -7.984375 L 4.890625 0 L 2.375 0 L 2.375 -18.578125 L 13.828125 -18.578125 L 13.828125 -16.53125 Z M 4.890625 -16.53125 "/></g></g><g style="fill:#ffffff;fill-opacity:1;"><g transform="translate(906.630751, 205.812697)"><path style="stroke:none" d=""/></g></g><g style="fill:#ffffff;fill-opacity:1;"><g transform="translate(926.729814, 205.812697)"><path style="stroke:none" d="M 13.84375 -2.046875 L 13.828125 0 L 2.375 0 L 2.375 -18.578125 L 13.828125 -18.578125 L 13.828125 -16.53125 L 4.890625 -16.53125 L 4.890625 -10.359375 L 12.125 -10.359375 L 12.125 -8.390625 L 4.890625 -8.390625 L 4.890625 -2.046875 Z M 13.84375 -2.046875 "/></g></g><g style="fill:#ffffff;fill-opacity:1;"><g transform="translate(955.166911, 205.812697)"><path style="stroke:none" d="M 9.546875 -2 C 10.316406 -2 11.003906 -2.128906 11.609375 -2.390625 C 12.210938 -2.648438 12.722656 -3.007812 13.140625 -3.46875 C 13.554688 -3.9375 13.875 -4.492188 14.09375 -5.140625 C 14.320312 -5.796875 14.4375 -6.507812 14.4375 -7.28125 L 14.4375 -18.578125 L 16.9375 -18.578125 L 16.9375 -7.28125 C 16.9375 -6.21875 16.765625 -5.226562 16.421875 -4.3125 C 16.078125 -3.394531 15.585938 -2.597656 14.953125 -1.921875 C 14.316406 -1.253906 13.539062 -0.726562 12.625 -0.34375 C 11.707031 0.03125 10.679688 0.21875 9.546875 0.21875 C 8.398438 0.21875 7.367188 0.03125 6.453125 -0.34375 C 5.535156 -0.726562 4.757812 -1.253906 4.125 -1.921875 C 3.488281 -2.597656 3 -3.394531 2.65625 -4.3125 C 2.3125 -5.226562 2.140625 -6.21875 2.140625 -7.28125 L 2.140625 -18.578125 L 4.640625 -18.578125 L 4.640625 -7.296875 C 4.640625 -6.523438 4.75 -5.8125 4.96875 -5.15625 C 5.1875 -4.507812 5.503906 -3.953125 5.921875 -3.484375 C 6.347656 -3.015625 6.863281 -2.648438 7.46875 -2.390625 C 8.082031 -2.128906 8.773438 -2 9.546875 -2 Z M 9.546875 -2 "/></g></g><g style="fill:#ffffff;fill-opacity:1;"><g transform="translate(987.701548, 205.812697)"><path style="stroke:none" d="M 7.515625 -9.578125 C 8.242188 -9.578125 8.882812 -9.664062 9.4375 -9.84375 C 10 -10.019531 10.46875 -10.269531 10.84375 -10.59375 C 11.21875 -10.925781 11.5 -11.316406 11.6875 -11.765625 C 11.882812 -12.210938 11.984375 -12.707031 11.984375 -13.25 C 11.984375 -14.363281 11.617188 -15.195312 10.890625 -15.75 C 10.160156 -16.3125 9.070312 -16.59375 7.625 -16.59375 L 4.875 -16.59375 L 4.875 -9.578125 Z M 16.109375 0 L 13.875 0 C 13.414062 0 13.078125 -0.175781 12.859375 -0.53125 L 8.046875 -7.171875 C 7.890625 -7.378906 7.726562 -7.523438 7.5625 -7.609375 C 7.394531 -7.703125 7.132812 -7.75 6.78125 -7.75 L 4.875 -7.75 L 4.875 0 L 2.375 0 L 2.375 -18.578125 L 7.625 -18.578125 C 8.800781 -18.578125 9.816406 -18.457031 10.671875 -18.21875 C 11.523438 -17.988281 12.226562 -17.644531 12.78125 -17.1875 C 13.34375 -16.738281 13.757812 -16.195312 14.03125 -15.5625 C 14.300781 -14.925781 14.4375 -14.21875 14.4375 -13.4375 C 14.4375 -12.78125 14.332031 -12.164062 14.125 -11.59375 C 13.914062 -11.019531 13.613281 -10.503906 13.21875 -10.046875 C 12.820312 -9.597656 12.34375 -9.210938 11.78125 -8.890625 C 11.21875 -8.578125 10.578125 -8.335938 9.859375 -8.171875 C 10.179688 -7.984375 10.457031 -7.71875 10.6875 -7.375 Z M 16.109375 0 "/></g></g><g style="fill:#ffffff;fill-opacity:1;"><g transform="translate(1017.409385, 205.812697)"><path style="stroke:none" d="M 19.546875 -9.28125 C 19.546875 -7.894531 19.320312 -6.617188 18.875 -5.453125 C 18.4375 -4.285156 17.816406 -3.28125 17.015625 -2.4375 C 16.210938 -1.601562 15.242188 -0.957031 14.109375 -0.5 C 12.984375 -0.0390625 11.738281 0.1875 10.375 0.1875 C 9.007812 0.1875 7.765625 -0.0390625 6.640625 -0.5 C 5.515625 -0.957031 4.550781 -1.601562 3.75 -2.4375 C 2.945312 -3.28125 2.320312 -4.285156 1.875 -5.453125 C 1.4375 -6.617188 1.21875 -7.894531 1.21875 -9.28125 C 1.21875 -10.675781 1.4375 -11.953125 1.875 -13.109375 C 2.320312 -14.273438 2.945312 -15.28125 3.75 -16.125 C 4.550781 -16.96875 5.515625 -17.625 6.640625 -18.09375 C 7.765625 -18.5625 9.007812 -18.796875 10.375 -18.796875 C 11.738281 -18.796875 12.984375 -18.5625 14.109375 -18.09375 C 15.242188 -17.625 16.210938 -16.96875 17.015625 -16.125 C 17.816406 -15.28125 18.4375 -14.273438 18.875 -13.109375 C 19.320312 -11.953125 19.546875 -10.675781 19.546875 -9.28125 Z M 16.96875 -9.28125 C 16.96875 -10.425781 16.8125 -11.453125 16.5 -12.359375 C 16.1875 -13.265625 15.742188 -14.03125 15.171875 -14.65625 C 14.597656 -15.28125 13.90625 -15.757812 13.09375 -16.09375 C 12.28125 -16.4375 11.375 -16.609375 10.375 -16.609375 C 9.382812 -16.609375 8.484375 -16.4375 7.671875 -16.09375 C 6.859375 -15.757812 6.160156 -15.28125 5.578125 -14.65625 C 5.003906 -14.03125 4.5625 -13.265625 4.25 -12.359375 C 3.9375 -11.453125 3.78125 -10.425781 3.78125 -9.28125 C 3.78125 -8.144531 3.9375 -7.125 4.25 -6.21875 C 4.5625 -5.3125 5.003906 -4.546875 5.578125 -3.921875 C 6.160156 -3.296875 6.859375 -2.816406 7.671875 -2.484375 C 8.484375 -2.148438 9.382812 -1.984375 10.375 -1.984375 C 11.375 -1.984375 12.28125 -2.148438 13.09375 -2.484375 C 13.90625 -2.816406 14.597656 -3.296875 15.171875 -3.921875 C 15.742188 -4.546875 16.1875 -5.3125 16.5 -6.21875 C 16.8125 -7.125 16.96875 -8.144531 16.96875 -9.28125 Z M 16.96875 -9.28125 "/></g></g><g style="fill:#ffffff;fill-opacity:1;"><g transform="translate(1051.629747, 205.812697)"><path style="stroke:none" d="M 7.859375 -8.953125 C 8.578125 -8.953125 9.207031 -9.046875 9.75 -9.234375 C 10.300781 -9.421875 10.765625 -9.6875 11.140625 -10.03125 C 11.515625 -10.375 11.796875 -10.78125 11.984375 -11.25 C 12.179688 -11.726562 12.28125 -12.253906 12.28125 -12.828125 C 12.28125 -14.015625 11.914062 -14.9375 11.1875 -15.59375 C 10.457031 -16.257812 9.347656 -16.59375 7.859375 -16.59375 L 4.875 -16.59375 L 4.875 -8.953125 Z M 7.859375 -18.578125 C 9.035156 -18.578125 10.054688 -18.441406 10.921875 -18.171875 C 11.796875 -17.898438 12.515625 -17.515625 13.078125 -17.015625 C 13.648438 -16.515625 14.078125 -15.910156 14.359375 -15.203125 C 14.640625 -14.492188 14.78125 -13.703125 14.78125 -12.828125 C 14.78125 -11.960938 14.628906 -11.171875 14.328125 -10.453125 C 14.023438 -9.734375 13.582031 -9.113281 13 -8.59375 C 12.414062 -8.070312 11.691406 -7.664062 10.828125 -7.375 C 9.972656 -7.09375 8.984375 -6.953125 7.859375 -6.953125 L 4.875 -6.953125 L 4.875 0 L 2.375 0 L 2.375 -18.578125 Z M 7.859375 -18.578125 "/></g></g><g style="fill:#ffffff;fill-opacity:1;"><g transform="translate(1080.663268, 205.812697)"><path style="stroke:none" d="M 13.84375 -2.046875 L 13.828125 0 L 2.375 0 L 2.375 -18.578125 L 13.828125 -18.578125 L 13.828125 -16.53125 L 4.890625 -16.53125 L 4.890625 -10.359375 L 12.125 -10.359375 L 12.125 -8.390625 L 4.890625 -8.390625 L 4.890625 -2.046875 Z M 13.84375 -2.046875 "/></g></g></g></svg>