<svg xmlns="http://www.w3.org/2000/svg" xmlns:xlink="http://www.w3.org/1999/xlink" width="1640" zoomAndPan="magnify" viewBox="0 0 1230 149.999998" height="200" preserveAspectRatio="xMidYMid meet" version="1.2"><defs/><g id="2d94a6426f"><rect x="0" width="1230" y="0" height="149.999998" style="fill:none;fill-opacity:1;stroke:none;"/><rect x="0" width="1230" y="0" height="149.999998" style="fill:none;fill-opacity:1;stroke:none;"/><g style="fill:#ffffff;fill-opacity:1;"><g transform="translate(21.694345, 90.749997)"><path style="stroke:none" d="M 25.046875 -6.234375 C 25.273438 -6.234375 25.472656 -6.144531 25.640625 -5.96875 L 27.265625 -4.21875 C 26.023438 -2.78125 24.523438 -1.660156 22.765625 -0.859375 C 21.003906 -0.0546875 18.875 0.34375 16.375 0.34375 C 14.207031 0.34375 12.238281 -0.03125 10.46875 -0.78125 C 8.695312 -1.539062 7.1875 -2.597656 5.9375 -3.953125 C 4.6875 -5.304688 3.71875 -6.929688 3.03125 -8.828125 C 2.34375 -10.722656 2 -12.8125 2 -15.09375 C 2 -17.363281 2.359375 -19.445312 3.078125 -21.34375 C 3.796875 -23.238281 4.800781 -24.867188 6.09375 -26.234375 C 7.394531 -27.597656 8.953125 -28.65625 10.765625 -29.40625 C 12.578125 -30.15625 14.578125 -30.53125 16.765625 -30.53125 C 18.921875 -30.53125 20.816406 -30.1875 22.453125 -29.5 C 24.097656 -28.8125 25.546875 -27.878906 26.796875 -26.703125 L 25.453125 -24.828125 C 25.367188 -24.679688 25.257812 -24.5625 25.125 -24.46875 C 24.988281 -24.382812 24.8125 -24.34375 24.59375 -24.34375 C 24.332031 -24.34375 24.019531 -24.476562 23.65625 -24.75 C 23.289062 -25.019531 22.8125 -25.320312 22.21875 -25.65625 C 21.632812 -26 20.898438 -26.304688 20.015625 -26.578125 C 19.128906 -26.847656 18.039062 -26.984375 16.75 -26.984375 C 15.1875 -26.984375 13.757812 -26.710938 12.46875 -26.171875 C 11.175781 -25.640625 10.0625 -24.859375 9.125 -23.828125 C 8.195312 -22.804688 7.472656 -21.554688 6.953125 -20.078125 C 6.429688 -18.609375 6.171875 -16.945312 6.171875 -15.09375 C 6.171875 -13.207031 6.441406 -11.523438 6.984375 -10.046875 C 7.523438 -8.578125 8.257812 -7.332031 9.1875 -6.3125 C 10.125 -5.289062 11.226562 -4.515625 12.5 -3.984375 C 13.769531 -3.453125 15.144531 -3.1875 16.625 -3.1875 C 17.519531 -3.1875 18.328125 -3.238281 19.046875 -3.34375 C 19.773438 -3.445312 20.441406 -3.609375 21.046875 -3.828125 C 21.660156 -4.054688 22.234375 -4.34375 22.765625 -4.6875 C 23.296875 -5.03125 23.820312 -5.441406 24.34375 -5.921875 C 24.570312 -6.128906 24.804688 -6.234375 25.046875 -6.234375 Z M 25.046875 -6.234375 "/></g></g><g style="fill:#ffffff;fill-opacity:1;"><g transform="translate(71.717394, 90.749997)"><path style="stroke:none" d="M 15.5 -3.25 C 16.757812 -3.25 17.878906 -3.457031 18.859375 -3.875 C 19.835938 -4.300781 20.664062 -4.890625 21.34375 -5.640625 C 22.03125 -6.398438 22.550781 -7.304688 22.90625 -8.359375 C 23.269531 -9.410156 23.453125 -10.570312 23.453125 -11.84375 L 23.453125 -30.1875 L 27.515625 -30.1875 L 27.515625 -11.84375 C 27.515625 -10.101562 27.238281 -8.488281 26.6875 -7 C 26.132812 -5.507812 25.335938 -4.21875 24.296875 -3.125 C 23.265625 -2.039062 22.003906 -1.1875 20.515625 -0.5625 C 19.023438 0.0507812 17.351562 0.359375 15.5 0.359375 C 13.644531 0.359375 11.972656 0.0507812 10.484375 -0.5625 C 9.003906 -1.1875 7.742188 -2.039062 6.703125 -3.125 C 5.660156 -4.21875 4.863281 -5.507812 4.3125 -7 C 3.757812 -8.488281 3.484375 -10.101562 3.484375 -11.84375 L 3.484375 -30.1875 L 7.546875 -30.1875 L 7.546875 -11.859375 C 7.546875 -10.597656 7.722656 -9.441406 8.078125 -8.390625 C 8.441406 -7.335938 8.960938 -6.429688 9.640625 -5.671875 C 10.316406 -4.910156 11.148438 -4.316406 12.140625 -3.890625 C 13.128906 -3.460938 14.25 -3.25 15.5 -3.25 Z M 15.5 -3.25 "/></g></g><g style="fill:#ffffff;fill-opacity:1;"><g transform="translate(124.584942, 90.749997)"><path style="stroke:none" d="M 20.984375 -3.4375 L 20.984375 0 L 3.859375 0 L 3.859375 -30.1875 L 7.921875 -30.1875 L 7.921875 -3.4375 Z M 20.984375 -3.4375 "/></g></g><g style="fill:#ffffff;fill-opacity:1;"><g transform="translate(168.097241, 90.749997)"><path style="stroke:none" d="M 24.265625 -26.765625 L 14.5 -26.765625 L 14.5 0 L 10.4375 0 L 10.4375 -26.765625 L 0.625 -26.765625 L 0.625 -30.1875 L 24.265625 -30.1875 Z M 24.265625 -26.765625 "/></g></g><g style="fill:#ffffff;fill-opacity:1;"><g transform="translate(214.854398, 90.749997)"><path style="stroke:none" d="M 15.5 -3.25 C 16.757812 -3.25 17.878906 -3.457031 18.859375 -3.875 C 19.835938 -4.300781 20.664062 -4.890625 21.34375 -5.640625 C 22.03125 -6.398438 22.550781 -7.304688 22.90625 -8.359375 C 23.269531 -9.410156 23.453125 -10.570312 23.453125 -11.84375 L 23.453125 -30.1875 L 27.515625 -30.1875 L 27.515625 -11.84375 C 27.515625 -10.101562 27.238281 -8.488281 26.6875 -7 C 26.132812 -5.507812 25.335938 -4.21875 24.296875 -3.125 C 23.265625 -2.039062 22.003906 -1.1875 20.515625 -0.5625 C 19.023438 0.0507812 17.351562 0.359375 15.5 0.359375 C 13.644531 0.359375 11.972656 0.0507812 10.484375 -0.5625 C 9.003906 -1.1875 7.742188 -2.039062 6.703125 -3.125 C 5.660156 -4.21875 4.863281 -5.507812 4.3125 -7 C 3.757812 -8.488281 3.484375 -10.101562 3.484375 -11.84375 L 3.484375 -30.1875 L 7.546875 -30.1875 L 7.546875 -11.859375 C 7.546875 -10.597656 7.722656 -9.441406 8.078125 -8.390625 C 8.441406 -7.335938 8.960938 -6.429688 9.640625 -5.671875 C 10.316406 -4.910156 11.148438 -4.316406 12.140625 -3.890625 C 13.128906 -3.460938 14.25 -3.25 15.5 -3.25 Z M 15.5 -3.25 "/></g></g><g style="fill:#ffffff;fill-opacity:1;"><g transform="translate(267.721934, 90.749997)"><path style="stroke:none" d="M 12.21875 -15.578125 C 13.394531 -15.578125 14.4375 -15.71875 15.34375 -16 C 16.25 -16.289062 17.007812 -16.695312 17.625 -17.21875 C 18.238281 -17.75 18.695312 -18.378906 19 -19.109375 C 19.3125 -19.835938 19.46875 -20.644531 19.46875 -21.53125 C 19.46875 -23.332031 18.875 -24.6875 17.6875 -25.59375 C 16.507812 -26.507812 14.742188 -26.96875 12.390625 -26.96875 L 7.921875 -26.96875 L 7.921875 -15.578125 Z M 26.171875 0 L 22.546875 0 C 21.796875 0 21.25 -0.285156 20.90625 -0.859375 L 13.0625 -11.65625 C 12.820312 -11.988281 12.566406 -12.226562 12.296875 -12.375 C 12.023438 -12.519531 11.597656 -12.59375 11.015625 -12.59375 L 7.921875 -12.59375 L 7.921875 0 L 3.859375 0 L 3.859375 -30.1875 L 12.390625 -30.1875 C 14.296875 -30.1875 15.941406 -29.992188 17.328125 -29.609375 C 18.722656 -29.222656 19.875 -28.664062 20.78125 -27.9375 C 21.6875 -27.207031 22.359375 -26.328125 22.796875 -25.296875 C 23.234375 -24.265625 23.453125 -23.109375 23.453125 -21.828125 C 23.453125 -20.765625 23.28125 -19.769531 22.9375 -18.84375 C 22.601562 -17.914062 22.113281 -17.082031 21.46875 -16.34375 C 20.832031 -15.601562 20.054688 -14.972656 19.140625 -14.453125 C 18.222656 -13.929688 17.179688 -13.539062 16.015625 -13.28125 C 16.535156 -12.976562 16.984375 -12.546875 17.359375 -11.984375 Z M 26.171875 0 "/></g></g><g style="fill:#ffffff;fill-opacity:1;"><g transform="translate(315.996132, 90.749997)"><path style="stroke:none" d="M 19.890625 -11.203125 L 15.15625 -23.5 C 15.007812 -23.863281 14.859375 -24.285156 14.703125 -24.765625 C 14.546875 -25.253906 14.398438 -25.769531 14.265625 -26.3125 C 13.972656 -25.175781 13.671875 -24.226562 13.359375 -23.46875 L 8.625 -11.203125 Z M 28.40625 0 L 25.234375 0 C 24.867188 0 24.570312 -0.0859375 24.34375 -0.265625 C 24.125 -0.453125 23.957031 -0.6875 23.84375 -0.96875 L 21.03125 -8.265625 L 7.484375 -8.265625 L 4.65625 -0.96875 C 4.570312 -0.71875 4.410156 -0.492188 4.171875 -0.296875 C 3.929688 -0.0976562 3.632812 0 3.28125 0 L 0.125 0 L 12.203125 -30.1875 L 16.328125 -30.1875 Z M 28.40625 0 "/></g></g><g style="fill:#ffffff;fill-opacity:1;"><g transform="translate(366.398472, 90.749997)"><path style="stroke:none" d="M 20.984375 -3.4375 L 20.984375 0 L 3.859375 0 L 3.859375 -30.1875 L 7.921875 -30.1875 L 7.921875 -3.4375 Z M 20.984375 -3.4375 "/></g></g><g style="fill:#ffffff;fill-opacity:1;"><g transform="translate(409.910783, 90.749997)"><path style="stroke:none" d=""/></g></g><g style="fill:#ffffff;fill-opacity:1;"><g transform="translate(442.571853, 90.749997)"><path style="stroke:none" d="M 25.046875 -6.234375 C 25.273438 -6.234375 25.472656 -6.144531 25.640625 -5.96875 L 27.265625 -4.21875 C 26.023438 -2.78125 24.523438 -1.660156 22.765625 -0.859375 C 21.003906 -0.0546875 18.875 0.34375 16.375 0.34375 C 14.207031 0.34375 12.238281 -0.03125 10.46875 -0.78125 C 8.695312 -1.539062 7.1875 -2.597656 5.9375 -3.953125 C 4.6875 -5.304688 3.71875 -6.929688 3.03125 -8.828125 C 2.34375 -10.722656 2 -12.8125 2 -15.09375 C 2 -17.363281 2.359375 -19.445312 3.078125 -21.34375 C 3.796875 -23.238281 4.800781 -24.867188 6.09375 -26.234375 C 7.394531 -27.597656 8.953125 -28.65625 10.765625 -29.40625 C 12.578125 -30.15625 14.578125 -30.53125 16.765625 -30.53125 C 18.921875 -30.53125 20.816406 -30.1875 22.453125 -29.5 C 24.097656 -28.8125 25.546875 -27.878906 26.796875 -26.703125 L 25.453125 -24.828125 C 25.367188 -24.679688 25.257812 -24.5625 25.125 -24.46875 C 24.988281 -24.382812 24.8125 -24.34375 24.59375 -24.34375 C 24.332031 -24.34375 24.019531 -24.476562 23.65625 -24.75 C 23.289062 -25.019531 22.8125 -25.320312 22.21875 -25.65625 C 21.632812 -26 20.898438 -26.304688 20.015625 -26.578125 C 19.128906 -26.847656 18.039062 -26.984375 16.75 -26.984375 C 15.1875 -26.984375 13.757812 -26.710938 12.46875 -26.171875 C 11.175781 -25.640625 10.0625 -24.859375 9.125 -23.828125 C 8.195312 -22.804688 7.472656 -21.554688 6.953125 -20.078125 C 6.429688 -18.609375 6.171875 -16.945312 6.171875 -15.09375 C 6.171875 -13.207031 6.441406 -11.523438 6.984375 -10.046875 C 7.523438 -8.578125 8.257812 -7.332031 9.1875 -6.3125 C 10.125 -5.289062 11.226562 -4.515625 12.5 -3.984375 C 13.769531 -3.453125 15.144531 -3.1875 16.625 -3.1875 C 17.519531 -3.1875 18.328125 -3.238281 19.046875 -3.34375 C 19.773438 -3.445312 20.441406 -3.609375 21.046875 -3.828125 C 21.660156 -4.054688 22.234375 -4.34375 22.765625 -4.6875 C 23.296875 -5.03125 23.820312 -5.441406 24.34375 -5.921875 C 24.570312 -6.128906 24.804688 -6.234375 25.046875 -6.234375 Z M 25.046875 -6.234375 "/></g></g><g style="fill:#ffffff;fill-opacity:1;"><g transform="translate(492.594892, 90.749997)"><path style="stroke:none" d="M 19.890625 -11.203125 L 15.15625 -23.5 C 15.007812 -23.863281 14.859375 -24.285156 14.703125 -24.765625 C 14.546875 -25.253906 14.398438 -25.769531 14.265625 -26.3125 C 13.972656 -25.175781 13.671875 -24.226562 13.359375 -23.46875 L 8.625 -11.203125 Z M 28.40625 0 L 25.234375 0 C 24.867188 0 24.570312 -0.0859375 24.34375 -0.265625 C 24.125 -0.453125 23.957031 -0.6875 23.84375 -0.96875 L 21.03125 -8.265625 L 7.484375 -8.265625 L 4.65625 -0.96875 C 4.570312 -0.71875 4.410156 -0.492188 4.171875 -0.296875 C 3.929688 -0.0976562 3.632812 0 3.28125 0 L 0.125 0 L 12.203125 -30.1875 L 16.328125 -30.1875 Z M 28.40625 0 "/></g></g><g style="fill:#ffffff;fill-opacity:1;"><g transform="translate(542.997187, 90.749997)"><path style="stroke:none" d="M 12.765625 -14.53125 C 13.929688 -14.53125 14.957031 -14.6875 15.84375 -15 C 16.738281 -15.3125 17.492188 -15.742188 18.109375 -16.296875 C 18.722656 -16.847656 19.179688 -17.507812 19.484375 -18.28125 C 19.796875 -19.0625 19.953125 -19.914062 19.953125 -20.84375 C 19.953125 -22.757812 19.359375 -24.257812 18.171875 -25.34375 C 16.984375 -26.425781 15.179688 -26.96875 12.765625 -26.96875 L 7.921875 -26.96875 L 7.921875 -14.53125 Z M 12.765625 -30.1875 C 14.679688 -30.1875 16.34375 -29.960938 17.75 -29.515625 C 19.164062 -29.078125 20.335938 -28.453125 21.265625 -27.640625 C 22.191406 -26.828125 22.878906 -25.84375 23.328125 -24.6875 C 23.785156 -23.539062 24.015625 -22.257812 24.015625 -20.84375 C 24.015625 -19.4375 23.769531 -18.148438 23.28125 -16.984375 C 22.789062 -15.816406 22.070312 -14.8125 21.125 -13.96875 C 20.175781 -13.125 19 -12.46875 17.59375 -12 C 16.195312 -11.53125 14.585938 -11.296875 12.765625 -11.296875 L 7.921875 -11.296875 L 7.921875 0 L 3.859375 0 L 3.859375 -30.1875 Z M 12.765625 -30.1875 "/></g></g><g style="fill:#ffffff;fill-opacity:1;"><g transform="translate(590.175727, 90.749997)"><path style="stroke:none" d="M 7.9375 0 L 3.859375 0 L 3.859375 -30.1875 L 7.9375 -30.1875 Z M 7.9375 0 "/></g></g><g style="fill:#ffffff;fill-opacity:1;"><g transform="translate(623.848179, 90.749997)"><path style="stroke:none" d="M 24.265625 -26.765625 L 14.5 -26.765625 L 14.5 0 L 10.4375 0 L 10.4375 -26.765625 L 0.625 -26.765625 L 0.625 -30.1875 L 24.265625 -30.1875 Z M 24.265625 -26.765625 "/></g></g><g style="fill:#ffffff;fill-opacity:1;"><g transform="translate(670.605349, 90.749997)"><path style="stroke:none" d="M 19.890625 -11.203125 L 15.15625 -23.5 C 15.007812 -23.863281 14.859375 -24.285156 14.703125 -24.765625 C 14.546875 -25.253906 14.398438 -25.769531 14.265625 -26.3125 C 13.972656 -25.175781 13.671875 -24.226562 13.359375 -23.46875 L 8.625 -11.203125 Z M 28.40625 0 L 25.234375 0 C 24.867188 0 24.570312 -0.0859375 24.34375 -0.265625 C 24.125 -0.453125 23.957031 -0.6875 23.84375 -0.96875 L 21.03125 -8.265625 L 7.484375 -8.265625 L 4.65625 -0.96875 C 4.570312 -0.71875 4.410156 -0.492188 4.171875 -0.296875 C 3.929688 -0.0976562 3.632812 0 3.28125 0 L 0.125 0 L 12.203125 -30.1875 L 16.328125 -30.1875 Z M 28.40625 0 "/></g></g><g style="fill:#ffffff;fill-opacity:1;"><g transform="translate(721.007689, 90.749997)"><path style="stroke:none" d="M 20.984375 -3.4375 L 20.984375 0 L 3.859375 0 L 3.859375 -30.1875 L 7.921875 -30.1875 L 7.921875 -3.4375 Z M 20.984375 -3.4375 "/></g></g><g style="fill:#ffffff;fill-opacity:1;"><g transform="translate(764.519955, 90.749997)"><path style="stroke:none" d=""/></g></g><g style="fill:#ffffff;fill-opacity:1;"><g transform="translate(797.181025, 90.749997)"><path style="stroke:none" d="M 31.75 -15.09375 C 31.75 -12.820312 31.390625 -10.742188 30.671875 -8.859375 C 29.960938 -6.972656 28.953125 -5.347656 27.640625 -3.984375 C 26.335938 -2.617188 24.769531 -1.5625 22.9375 -0.8125 C 21.101562 -0.0625 19.078125 0.3125 16.859375 0.3125 C 14.640625 0.3125 12.613281 -0.0625 10.78125 -0.8125 C 8.957031 -1.5625 7.390625 -2.617188 6.078125 -3.984375 C 4.773438 -5.347656 3.765625 -6.972656 3.046875 -8.859375 C 2.335938 -10.742188 1.984375 -12.820312 1.984375 -15.09375 C 1.984375 -17.351562 2.335938 -19.425781 3.046875 -21.3125 C 3.765625 -23.195312 4.773438 -24.820312 6.078125 -26.1875 C 7.390625 -27.5625 8.957031 -28.628906 10.78125 -29.390625 C 12.613281 -30.148438 14.640625 -30.53125 16.859375 -30.53125 C 19.078125 -30.53125 21.101562 -30.148438 22.9375 -29.390625 C 24.769531 -28.628906 26.335938 -27.5625 27.640625 -26.1875 C 28.953125 -24.820312 29.960938 -23.195312 30.671875 -21.3125 C 31.390625 -19.425781 31.75 -17.351562 31.75 -15.09375 Z M 27.5625 -15.09375 C 27.5625 -16.945312 27.304688 -18.609375 26.796875 -20.078125 C 26.296875 -21.554688 25.582031 -22.800781 24.65625 -23.8125 C 23.726562 -24.832031 22.601562 -25.613281 21.28125 -26.15625 C 19.957031 -26.707031 18.484375 -26.984375 16.859375 -26.984375 C 15.242188 -26.984375 13.773438 -26.707031 12.453125 -26.15625 C 11.128906 -25.613281 10 -24.832031 9.0625 -23.8125 C 8.132812 -22.800781 7.414062 -21.554688 6.90625 -20.078125 C 6.40625 -18.609375 6.15625 -16.945312 6.15625 -15.09375 C 6.15625 -13.238281 6.40625 -11.578125 6.90625 -10.109375 C 7.414062 -8.640625 8.132812 -7.394531 9.0625 -6.375 C 10 -5.351562 11.128906 -4.570312 12.453125 -4.03125 C 13.773438 -3.488281 15.242188 -3.21875 16.859375 -3.21875 C 18.484375 -3.21875 19.957031 -3.488281 21.28125 -4.03125 C 22.601562 -4.570312 23.726562 -5.351562 24.65625 -6.375 C 25.582031 -7.394531 26.296875 -8.640625 26.796875 -10.109375 C 27.304688 -11.578125 27.5625 -13.238281 27.5625 -15.09375 Z M 27.5625 -15.09375 "/></g></g><g style="fill:#ffffff;fill-opacity:1;"><g transform="translate(852.787681, 90.749997)"><path style="stroke:none" d="M 7.9375 -26.859375 L 7.9375 -16.3125 L 20.359375 -16.3125 L 20.359375 -12.984375 L 7.9375 -12.984375 L 7.9375 0 L 3.859375 0 L 3.859375 -30.1875 L 22.453125 -30.1875 L 22.453125 -26.859375 Z M 7.9375 -26.859375 "/></g></g><g style="fill:#ffffff;fill-opacity:1;"><g transform="translate(898.491352, 90.749997)"><path style="stroke:none" d=""/></g></g><g style="fill:#ffffff;fill-opacity:1;"><g transform="translate(931.163042, 90.749997)"><path style="stroke:none" d="M 9.5625 -25.625 L 9.5625 -17.765625 L 19.765625 -17.765625 L 19.765625 -12.984375 L 9.5625 -12.984375 L 9.5625 -4.953125 L 22.671875 -4.953125 L 22.671875 0 L 3.203125 0 L 3.203125 -30.578125 L 22.671875 -30.578125 L 22.671875 -25.625 Z M 9.5625 -25.625 "/></g></g><g style="fill:#ffffff;fill-opacity:1;"><g transform="translate(977.224856, 90.749997)"><path style="stroke:none" d="M 15.71875 -5.0625 C 16.738281 -5.0625 17.65625 -5.234375 18.46875 -5.578125 C 19.289062 -5.921875 19.984375 -6.40625 20.546875 -7.03125 C 21.109375 -7.664062 21.535156 -8.429688 21.828125 -9.328125 C 22.117188 -10.234375 22.265625 -11.25 22.265625 -12.375 L 22.265625 -30.578125 L 28.59375 -30.578125 L 28.59375 -12.375 C 28.59375 -10.519531 28.289062 -8.816406 27.6875 -7.265625 C 27.09375 -5.710938 26.238281 -4.375 25.125 -3.25 C 24.019531 -2.125 22.671875 -1.242188 21.078125 -0.609375 C 19.492188 0.0234375 17.707031 0.34375 15.71875 0.34375 C 13.71875 0.34375 11.921875 0.0234375 10.328125 -0.609375 C 8.734375 -1.242188 7.378906 -2.125 6.265625 -3.25 C 5.160156 -4.375 4.3125 -5.710938 3.71875 -7.265625 C 3.125 -8.816406 2.828125 -10.519531 2.828125 -12.375 L 2.828125 -30.578125 L 9.140625 -30.578125 L 9.140625 -12.375 C 9.140625 -11.25 9.285156 -10.234375 9.578125 -9.328125 C 9.878906 -8.429688 10.3125 -7.664062 10.875 -7.03125 C 11.4375 -6.40625 12.125 -5.921875 12.9375 -5.578125 C 13.75 -5.234375 14.675781 -5.0625 15.71875 -5.0625 Z M 15.71875 -5.0625 "/></g></g><g style="fill:#ffffff;fill-opacity:1;"><g transform="translate(1030.513809, 90.749997)"><path style="stroke:none" d="M 12.765625 -16.09375 C 13.796875 -16.09375 14.679688 -16.222656 15.421875 -16.484375 C 16.171875 -16.742188 16.78125 -17.101562 17.25 -17.5625 C 17.726562 -18.019531 18.078125 -18.554688 18.296875 -19.171875 C 18.523438 -19.785156 18.640625 -20.460938 18.640625 -21.203125 C 18.640625 -22.640625 18.160156 -23.757812 17.203125 -24.5625 C 16.242188 -25.363281 14.78125 -25.765625 12.8125 -25.765625 L 9.53125 -25.765625 L 9.53125 -16.09375 Z M 27.578125 0 L 21.875 0 C 20.800781 0 20.023438 -0.40625 19.546875 -1.21875 L 13.734375 -10.59375 C 13.492188 -10.957031 13.226562 -11.222656 12.9375 -11.390625 C 12.65625 -11.566406 12.234375 -11.65625 11.671875 -11.65625 L 9.53125 -11.65625 L 9.53125 0 L 3.203125 0 L 3.203125 -30.578125 L 12.8125 -30.578125 C 14.945312 -30.578125 16.769531 -30.351562 18.28125 -29.90625 C 19.800781 -29.46875 21.046875 -28.851562 22.015625 -28.0625 C 22.984375 -27.28125 23.691406 -26.34375 24.140625 -25.25 C 24.597656 -24.164062 24.828125 -22.96875 24.828125 -21.65625 C 24.828125 -20.644531 24.679688 -19.6875 24.390625 -18.78125 C 24.097656 -17.875 23.675781 -17.046875 23.125 -16.296875 C 22.582031 -15.554688 21.910156 -14.898438 21.109375 -14.328125 C 20.304688 -13.753906 19.394531 -13.289062 18.375 -12.9375 C 18.78125 -12.707031 19.15625 -12.4375 19.5 -12.125 C 19.851562 -11.8125 20.171875 -11.4375 20.453125 -11 Z M 27.578125 0 "/></g></g><g style="fill:#ffffff;fill-opacity:1;"><g transform="translate(1079.757252, 90.749997)"><path style="stroke:none" d="M 32.75 -15.296875 C 32.75 -13.066406 32.367188 -10.992188 31.609375 -9.078125 C 30.859375 -7.171875 29.796875 -5.519531 28.421875 -4.125 C 27.054688 -2.738281 25.410156 -1.644531 23.484375 -0.84375 C 21.566406 -0.0507812 19.4375 0.34375 17.09375 0.34375 C 14.738281 0.34375 12.597656 -0.0507812 10.671875 -0.84375 C 8.753906 -1.644531 7.109375 -2.738281 5.734375 -4.125 C 4.359375 -5.519531 3.289062 -7.171875 2.53125 -9.078125 C 1.78125 -10.992188 1.40625 -13.066406 1.40625 -15.296875 C 1.40625 -17.523438 1.78125 -19.59375 2.53125 -21.5 C 3.289062 -23.40625 4.359375 -25.050781 5.734375 -26.4375 C 7.109375 -27.832031 8.753906 -28.925781 10.671875 -29.71875 C 12.597656 -30.507812 14.738281 -30.90625 17.09375 -30.90625 C 19.4375 -30.90625 21.566406 -30.507812 23.484375 -29.71875 C 25.410156 -28.925781 27.054688 -27.832031 28.421875 -26.4375 C 29.796875 -25.039062 30.859375 -23.390625 31.609375 -21.484375 C 32.367188 -19.578125 32.75 -17.515625 32.75 -15.296875 Z M 26.28125 -15.296875 C 26.28125 -16.898438 26.066406 -18.335938 25.640625 -19.609375 C 25.222656 -20.878906 24.613281 -21.957031 23.8125 -22.84375 C 23.019531 -23.738281 22.054688 -24.421875 20.921875 -24.890625 C 19.796875 -25.359375 18.519531 -25.59375 17.09375 -25.59375 C 15.65625 -25.59375 14.367188 -25.359375 13.234375 -24.890625 C 12.097656 -24.421875 11.128906 -23.738281 10.328125 -22.84375 C 9.535156 -21.957031 8.925781 -20.878906 8.5 -19.609375 C 8.082031 -18.335938 7.875 -16.898438 7.875 -15.296875 C 7.875 -13.679688 8.082031 -12.238281 8.5 -10.96875 C 8.925781 -9.695312 9.535156 -8.617188 10.328125 -7.734375 C 11.128906 -6.847656 12.097656 -6.171875 13.234375 -5.703125 C 14.367188 -5.234375 15.65625 -5 17.09375 -5 C 18.519531 -5 19.796875 -5.234375 20.921875 -5.703125 C 22.054688 -6.171875 23.019531 -6.847656 23.8125 -7.734375 C 24.613281 -8.617188 25.222656 -9.695312 25.640625 -10.96875 C 26.066406 -12.238281 26.28125 -13.679688 26.28125 -15.296875 Z M 26.28125 -15.296875 "/></g></g><g style="fill:#ffffff;fill-opacity:1;"><g transform="translate(1135.806417, 90.749997)"><path style="stroke:none" d="M 13.53125 -15.359375 C 15.507812 -15.359375 16.957031 -15.832031 17.875 -16.78125 C 18.800781 -17.738281 19.265625 -19.050781 19.265625 -20.71875 C 19.265625 -21.46875 19.144531 -22.15625 18.90625 -22.78125 C 18.675781 -23.40625 18.328125 -23.9375 17.859375 -24.375 C 17.390625 -24.820312 16.796875 -25.164062 16.078125 -25.40625 C 15.359375 -25.644531 14.507812 -25.765625 13.53125 -25.765625 L 9.53125 -25.765625 L 9.53125 -15.359375 Z M 13.53125 -30.578125 C 15.625 -30.578125 17.429688 -30.328125 18.953125 -29.828125 C 20.472656 -29.335938 21.722656 -28.65625 22.703125 -27.78125 C 23.691406 -26.90625 24.421875 -25.863281 24.890625 -24.65625 C 25.359375 -23.445312 25.59375 -22.132812 25.59375 -20.71875 C 25.59375 -19.207031 25.347656 -17.828125 24.859375 -16.578125 C 24.367188 -15.328125 23.625 -14.253906 22.625 -13.359375 C 21.632812 -12.460938 20.378906 -11.765625 18.859375 -11.265625 C 17.335938 -10.765625 15.5625 -10.515625 13.53125 -10.515625 L 9.53125 -10.515625 L 9.53125 0 L 3.203125 0 L 3.203125 -30.578125 Z M 13.53125 -30.578125 "/></g></g><g style="fill:#ffffff;fill-opacity:1;"><g transform="translate(1184.101694, 90.749997)"><path style="stroke:none" d="M 9.5625 -25.625 L 9.5625 -17.765625 L 19.765625 -17.765625 L 19.765625 -12.984375 L 9.5625 -12.984375 L 9.5625 -4.953125 L 22.671875 -4.953125 L 22.671875 0 L 3.203125 0 L 3.203125 -30.578125 L 22.671875 -30.578125 L 22.671875 -25.625 Z M 9.5625 -25.625 "/></g></g></g></svg>