<svg xmlns="http://www.w3.org/2000/svg" xmlns:xlink="http://www.w3.org/1999/xlink" width="425" zoomAndPan="magnify" viewBox="0 0 318.75 59.249999" height="79" preserveAspectRatio="xMidYMid meet" version="1.2"><defs><clipPath id="9edb21339d"><path d="M 1.867188 0 L 316.632812 0 L 316.632812 58.507812 L 1.867188 58.507812 Z M 1.867188 0 "/></clipPath></defs><g id="3ccdcd2da9"><g clip-rule="nonzero" clip-path="url(#9edb21339d)"><path style=" stroke:none;fill-rule:nonzero;fill:none;fill-opacity:1;" d="M 1.867188 0 L 316.632812 0 L 316.632812 58.507812 L 1.867188 58.507812 Z M 1.867188 0 "/></g><g style="fill:#ffffff;fill-opacity:1;"><g transform="translate(24.723656, 33.738312)"><path style="stroke:none" d="M 11.515625 0.46875 C 9.691406 0.46875 8.109375 0.171875 6.765625 -0.421875 C 5.429688 -1.015625 4.332031 -1.828125 3.46875 -2.859375 C 2.601562 -3.890625 1.957031 -5.070312 1.53125 -6.40625 C 1.101562 -7.75 0.890625 -9.160156 0.890625 -10.640625 C 0.890625 -12.128906 1.101562 -13.535156 1.53125 -14.859375 C 1.957031 -16.191406 2.601562 -17.375 3.46875 -18.40625 C 4.332031 -19.4375 5.429688 -20.242188 6.765625 -20.828125 C 8.109375 -21.421875 9.691406 -21.71875 11.515625 -21.71875 C 13.390625 -21.71875 14.988281 -21.394531 16.3125 -20.75 C 17.644531 -20.113281 18.703125 -19.222656 19.484375 -18.078125 C 20.265625 -16.929688 20.75 -15.597656 20.9375 -14.078125 L 15.46875 -14.078125 C 15.320312 -15.171875 14.867188 -15.972656 14.109375 -16.484375 C 13.359375 -16.992188 12.457031 -17.25 11.40625 -17.25 C 9.707031 -17.25 8.40625 -16.648438 7.5 -15.453125 C 6.601562 -14.253906 6.15625 -12.648438 6.15625 -10.640625 C 6.15625 -8.617188 6.601562 -7.003906 7.5 -5.796875 C 8.40625 -4.585938 9.707031 -3.984375 11.40625 -3.984375 C 12.457031 -3.984375 13.351562 -4.242188 14.09375 -4.765625 C 14.84375 -5.285156 15.300781 -6.101562 15.46875 -7.21875 L 20.9375 -7.21875 C 20.75 -5.695312 20.265625 -4.351562 19.484375 -3.1875 C 18.703125 -2.03125 17.644531 -1.128906 16.3125 -0.484375 C 14.988281 0.148438 13.390625 0.46875 11.515625 0.46875 Z M 11.515625 0.46875 "/></g></g><g style="fill:#ffffff;fill-opacity:1;"><g transform="translate(47.825275, 33.738312)"><path style="stroke:none" d="M 6.65625 0 L 1.671875 0 L 1.671875 -21.265625 L 6.65625 -21.265625 L 6.65625 -12.84375 L 14.75 -12.84375 L 14.75 -21.265625 L 19.734375 -21.265625 L 19.734375 0 L 14.75 0 L 14.75 -8.390625 L 6.65625 -8.390625 Z M 6.65625 0 "/></g></g><g style="fill:#ffffff;fill-opacity:1;"><g transform="translate(70.676102, 33.738312)"><path style="stroke:none" d="M 16.203125 0 L 1.671875 0 L 1.671875 -21.265625 L 16.203125 -21.265625 L 16.203125 -16.8125 L 6.65625 -16.8125 L 6.65625 -12.84375 L 15.28125 -12.84375 L 15.28125 -8.421875 L 6.65625 -8.421875 L 6.65625 -4.453125 L 16.203125 -4.453125 Z M 16.203125 0 "/></g></g><g style="fill:#ffffff;fill-opacity:1;"><g transform="translate(89.458476, 33.738312)"><path style="stroke:none" d="M 6.65625 0 L 1.671875 0 L 1.671875 -21.265625 L 9.703125 -21.265625 L 13.21875 -5.96875 L 16.703125 -21.265625 L 24.75 -21.265625 L 24.75 0 L 19.765625 0 L 19.765625 -17.28125 L 15.640625 0 L 10.78125 0 L 6.65625 -17.171875 Z M 6.65625 0 "/></g></g><g style="fill:#ffffff;fill-opacity:1;"><g transform="translate(117.297322, 33.738312)"><path style="stroke:none" d="M 6.65625 0 L 1.671875 0 L 1.671875 -21.265625 L 6.75 -21.265625 L 14.90625 -8.359375 L 14.90625 -21.265625 L 19.90625 -21.265625 L 19.90625 0 L 14.828125 0 L 6.65625 -12.984375 Z M 6.65625 0 "/></g></g><g style="fill:#ffffff;fill-opacity:1;"><g transform="translate(140.259612, 33.738312)"><path style="stroke:none" d="M 6.65625 0 L 1.671875 0 L 1.671875 -21.265625 L 6.65625 -21.265625 Z M 6.65625 0 "/></g></g><g style="fill:#ffffff;fill-opacity:1;"><g transform="translate(150.013381, 33.738312)"><path style="stroke:none" d="M 11.203125 0 L 6.21875 0 L 6.21875 -16.8125 L 0.21875 -16.8125 L 0.21875 -21.265625 L 17.203125 -21.265625 L 17.203125 -16.8125 L 11.203125 -16.8125 Z M 11.203125 0 "/></g></g><g style="fill:#ffffff;fill-opacity:1;"><g transform="translate(168.823623, 33.738312)"><path style="stroke:none" d="M 16.53125 0 L 0.71875 0 L 0.71875 -3.375 L 10.171875 -16.8125 L 1.3125 -16.8125 L 1.3125 -21.265625 L 16.46875 -21.265625 L 16.46875 -17.734375 L 7.1875 -4.453125 L 16.53125 -4.453125 Z M 16.53125 0 "/></g></g><g style="fill:#ffffff;fill-opacity:1;"><g transform="translate(191.402998, 33.738312)"><path style="stroke:none" d="M 2.421875 0 L 0.453125 0 L 8.46875 -21.265625 L 10.703125 -21.265625 L 18.734375 0 L 16.75 0 L 14.609375 -5.75 L 4.578125 -5.75 Z M 9.59375 -19.296875 L 5.1875 -7.46875 L 14 -7.46875 Z M 9.59375 -19.296875 "/></g></g><g style="fill:#ffffff;fill-opacity:1;"><g transform="translate(212.526382, 33.738312)"><path style="stroke:none" d="M 9.78125 0 L 7.859375 0 L 7.859375 -19.546875 L 0.390625 -19.546875 L 0.390625 -21.265625 L 17.28125 -21.265625 L 17.28125 -19.546875 L 9.78125 -19.546875 Z M 9.78125 0 "/></g></g><g style="fill:#ffffff;fill-opacity:1;"><g transform="translate(232.144999, 33.738312)"><path style="stroke:none" d="M 13.875 0 L 2.203125 0 L 2.203125 -21.265625 L 4.125 -21.265625 L 4.125 -1.734375 L 13.875 -1.734375 Z M 13.875 0 "/></g></g><g style="fill:#ffffff;fill-opacity:1;"><g transform="translate(248.391826, 33.738312)"><path style="stroke:none" d="M 2.421875 0 L 0.453125 0 L 8.46875 -21.265625 L 10.703125 -21.265625 L 18.734375 0 L 16.75 0 L 14.609375 -5.75 L 4.578125 -5.75 Z M 9.59375 -19.296875 L 5.1875 -7.46875 L 14 -7.46875 Z M 9.59375 -19.296875 "/></g></g><g style="fill:#ffffff;fill-opacity:1;"><g transform="translate(269.515211, 33.738312)"><path style="stroke:none" d="M 9.453125 0.28125 C 8.109375 0.28125 6.851562 0.0664062 5.6875 -0.359375 C 4.519531 -0.785156 3.539062 -1.460938 2.75 -2.390625 C 1.957031 -3.328125 1.441406 -4.535156 1.203125 -6.015625 L 3.15625 -6.015625 C 3.351562 -4.867188 3.78125 -3.957031 4.4375 -3.28125 C 5.101562 -2.613281 5.890625 -2.140625 6.796875 -1.859375 C 7.710938 -1.585938 8.644531 -1.453125 9.59375 -1.453125 C 11.28125 -1.453125 12.585938 -1.84375 13.515625 -2.625 C 14.441406 -3.40625 14.90625 -4.484375 14.90625 -5.859375 C 14.90625 -6.648438 14.738281 -7.300781 14.40625 -7.8125 C 14.070312 -8.320312 13.617188 -8.734375 13.046875 -9.046875 C 12.472656 -9.367188 11.828125 -9.628906 11.109375 -9.828125 C 10.390625 -10.023438 9.640625 -10.207031 8.859375 -10.375 C 8.023438 -10.550781 7.203125 -10.75 6.390625 -10.96875 C 5.585938 -11.195312 4.851562 -11.5 4.1875 -11.875 C 3.53125 -12.257812 3.003906 -12.773438 2.609375 -13.421875 C 2.222656 -14.078125 2.03125 -14.914062 2.03125 -15.9375 C 2.03125 -17.09375 2.332031 -18.085938 2.9375 -18.921875 C 3.539062 -19.765625 4.363281 -20.410156 5.40625 -20.859375 C 6.445312 -21.316406 7.628906 -21.546875 8.953125 -21.546875 C 10.804688 -21.546875 12.382812 -21.082031 13.6875 -20.15625 C 14.988281 -19.238281 15.804688 -17.742188 16.140625 -15.671875 L 14.296875 -15.671875 C 14.003906 -17.191406 13.378906 -18.257812 12.421875 -18.875 C 11.460938 -19.5 10.296875 -19.8125 8.921875 -19.8125 C 7.472656 -19.8125 6.28125 -19.476562 5.34375 -18.8125 C 4.414062 -18.144531 3.953125 -17.234375 3.953125 -16.078125 C 3.953125 -15.148438 4.222656 -14.429688 4.765625 -13.921875 C 5.304688 -13.410156 6.007812 -13.023438 6.875 -12.765625 C 7.738281 -12.503906 8.648438 -12.265625 9.609375 -12.046875 C 10.484375 -11.859375 11.34375 -11.640625 12.1875 -11.390625 C 13.039062 -11.148438 13.816406 -10.816406 14.515625 -10.390625 C 15.222656 -9.960938 15.785156 -9.394531 16.203125 -8.6875 C 16.628906 -7.988281 16.84375 -7.070312 16.84375 -5.9375 C 16.84375 -4.082031 16.210938 -2.582031 14.953125 -1.4375 C 13.703125 -0.289062 11.867188 0.28125 9.453125 0.28125 Z M 9.453125 0.28125 "/></g></g><g style="fill:#ffffff;fill-opacity:1;"><g transform="translate(48.647181, 52.675692)"><path style="stroke:none" d="M 4.21875 -0.625 L 4.21875 0 L 0.71875 0 L 0.71875 -5.671875 L 4.21875 -5.671875 L 4.21875 -5.046875 L 1.484375 -5.046875 L 1.484375 -3.15625 L 3.703125 -3.15625 L 3.703125 -2.5625 L 1.484375 -2.5625 L 1.484375 -0.625 Z M 4.21875 -0.625 "/></g></g><g style="fill:#ffffff;fill-opacity:1;"><g transform="translate(57.483385, 52.675692)"><path style="stroke:none" d="M 2.90625 -0.609375 C 3.144531 -0.609375 3.351562 -0.644531 3.53125 -0.71875 C 3.71875 -0.800781 3.875 -0.910156 4 -1.046875 C 4.132812 -1.191406 4.234375 -1.363281 4.296875 -1.5625 C 4.367188 -1.757812 4.40625 -1.976562 4.40625 -2.21875 L 4.40625 -5.671875 L 5.15625 -5.671875 L 5.15625 -2.21875 C 5.15625 -1.894531 5.101562 -1.59375 5 -1.3125 C 4.894531 -1.03125 4.742188 -0.785156 4.546875 -0.578125 C 4.359375 -0.378906 4.125 -0.222656 3.84375 -0.109375 C 3.570312 0.00390625 3.257812 0.0625 2.90625 0.0625 C 2.5625 0.0625 2.25 0.00390625 1.96875 -0.109375 C 1.6875 -0.222656 1.445312 -0.378906 1.25 -0.578125 C 1.0625 -0.785156 0.914062 -1.03125 0.8125 -1.3125 C 0.707031 -1.59375 0.65625 -1.894531 0.65625 -2.21875 L 0.65625 -5.671875 L 1.421875 -5.671875 L 1.421875 -2.21875 C 1.421875 -1.988281 1.453125 -1.773438 1.515625 -1.578125 C 1.578125 -1.378906 1.671875 -1.207031 1.796875 -1.0625 C 1.929688 -0.914062 2.09375 -0.800781 2.28125 -0.71875 C 2.46875 -0.644531 2.675781 -0.609375 2.90625 -0.609375 Z M 2.90625 -0.609375 "/></g></g><g style="fill:#ffffff;fill-opacity:1;"><g transform="translate(67.567801, 52.675692)"><path style="stroke:none" d="M 2.296875 -2.921875 C 2.515625 -2.921875 2.707031 -2.945312 2.875 -3 C 3.050781 -3.050781 3.195312 -3.125 3.3125 -3.21875 C 3.425781 -3.320312 3.507812 -3.441406 3.5625 -3.578125 C 3.625 -3.722656 3.65625 -3.878906 3.65625 -4.046875 C 3.65625 -4.378906 3.539062 -4.628906 3.3125 -4.796875 C 3.09375 -4.972656 2.765625 -5.0625 2.328125 -5.0625 L 1.484375 -5.0625 L 1.484375 -2.921875 Z M 4.90625 0 L 4.234375 0 C 4.085938 0 3.984375 -0.0507812 3.921875 -0.15625 L 2.453125 -2.1875 C 2.410156 -2.25 2.363281 -2.289062 2.3125 -2.3125 C 2.257812 -2.34375 2.175781 -2.359375 2.0625 -2.359375 L 1.484375 -2.359375 L 1.484375 0 L 0.71875 0 L 0.71875 -5.671875 L 2.328125 -5.671875 C 2.679688 -5.671875 2.988281 -5.632812 3.25 -5.5625 C 3.507812 -5.488281 3.722656 -5.378906 3.890625 -5.234375 C 4.066406 -5.097656 4.195312 -4.929688 4.28125 -4.734375 C 4.363281 -4.546875 4.40625 -4.332031 4.40625 -4.09375 C 4.40625 -3.894531 4.367188 -3.707031 4.296875 -3.53125 C 4.234375 -3.351562 4.140625 -3.195312 4.015625 -3.0625 C 3.898438 -2.925781 3.753906 -2.804688 3.578125 -2.703125 C 3.410156 -2.609375 3.21875 -2.535156 3 -2.484375 C 3.101562 -2.429688 3.1875 -2.351562 3.25 -2.25 Z M 4.90625 0 "/></g></g><g style="fill:#ffffff;fill-opacity:1;"><g transform="translate(76.791106, 52.675692)"><path style="stroke:none" d="M 5.953125 -2.828125 C 5.953125 -2.398438 5.882812 -2.007812 5.75 -1.65625 C 5.613281 -1.300781 5.421875 -0.992188 5.171875 -0.734375 C 4.929688 -0.484375 4.640625 -0.285156 4.296875 -0.140625 C 3.953125 -0.00390625 3.570312 0.0625 3.15625 0.0625 C 2.738281 0.0625 2.359375 -0.00390625 2.015625 -0.140625 C 1.679688 -0.285156 1.390625 -0.484375 1.140625 -0.734375 C 0.898438 -0.992188 0.710938 -1.300781 0.578125 -1.65625 C 0.441406 -2.007812 0.375 -2.398438 0.375 -2.828125 C 0.375 -3.253906 0.441406 -3.644531 0.578125 -4 C 0.710938 -4.351562 0.898438 -4.65625 1.140625 -4.90625 C 1.390625 -5.164062 1.679688 -5.367188 2.015625 -5.515625 C 2.359375 -5.660156 2.738281 -5.734375 3.15625 -5.734375 C 3.570312 -5.734375 3.953125 -5.660156 4.296875 -5.515625 C 4.640625 -5.367188 4.929688 -5.164062 5.171875 -4.90625 C 5.421875 -4.65625 5.613281 -4.351562 5.75 -4 C 5.882812 -3.644531 5.953125 -3.253906 5.953125 -2.828125 Z M 5.171875 -2.828125 C 5.171875 -3.179688 5.125 -3.492188 5.03125 -3.765625 C 4.9375 -4.046875 4.800781 -4.28125 4.625 -4.46875 C 4.445312 -4.65625 4.234375 -4.800781 3.984375 -4.90625 C 3.742188 -5.007812 3.46875 -5.0625 3.15625 -5.0625 C 2.851562 -5.0625 2.578125 -5.007812 2.328125 -4.90625 C 2.085938 -4.800781 1.878906 -4.65625 1.703125 -4.46875 C 1.523438 -4.28125 1.390625 -4.046875 1.296875 -3.765625 C 1.203125 -3.492188 1.15625 -3.179688 1.15625 -2.828125 C 1.15625 -2.484375 1.203125 -2.171875 1.296875 -1.890625 C 1.390625 -1.617188 1.523438 -1.382812 1.703125 -1.1875 C 1.878906 -1 2.085938 -0.851562 2.328125 -0.75 C 2.578125 -0.65625 2.851562 -0.609375 3.15625 -0.609375 C 3.46875 -0.609375 3.742188 -0.65625 3.984375 -0.75 C 4.234375 -0.851562 4.445312 -1 4.625 -1.1875 C 4.800781 -1.382812 4.9375 -1.617188 5.03125 -1.890625 C 5.125 -2.171875 5.171875 -2.484375 5.171875 -2.828125 Z M 5.171875 -2.828125 "/></g></g><g style="fill:#ffffff;fill-opacity:1;"><g transform="translate(87.389023, 52.675692)"><path style="stroke:none" d="M 2.390625 -2.734375 C 2.609375 -2.734375 2.800781 -2.757812 2.96875 -2.8125 C 3.132812 -2.875 3.273438 -2.957031 3.390625 -3.0625 C 3.503906 -3.164062 3.59375 -3.289062 3.65625 -3.4375 C 3.71875 -3.582031 3.75 -3.738281 3.75 -3.90625 C 3.75 -4.269531 3.632812 -4.550781 3.40625 -4.75 C 3.1875 -4.957031 2.847656 -5.0625 2.390625 -5.0625 L 1.484375 -5.0625 L 1.484375 -2.734375 Z M 2.390625 -5.671875 C 2.753906 -5.671875 3.066406 -5.628906 3.328125 -5.546875 C 3.597656 -5.460938 3.816406 -5.34375 3.984375 -5.1875 C 4.160156 -5.03125 4.289062 -4.84375 4.375 -4.625 C 4.457031 -4.414062 4.5 -4.175781 4.5 -3.90625 C 4.5 -3.644531 4.453125 -3.40625 4.359375 -3.1875 C 4.273438 -2.96875 4.144531 -2.78125 3.96875 -2.625 C 3.789062 -2.46875 3.566406 -2.34375 3.296875 -2.25 C 3.035156 -2.164062 2.734375 -2.125 2.390625 -2.125 L 1.484375 -2.125 L 1.484375 0 L 0.71875 0 L 0.71875 -5.671875 Z M 2.390625 -5.671875 "/></g></g><g style="fill:#ffffff;fill-opacity:1;"><g transform="translate(96.406928, 52.675692)"><path style="stroke:none" d="M 4.21875 -0.625 L 4.21875 0 L 0.71875 0 L 0.71875 -5.671875 L 4.21875 -5.671875 L 4.21875 -5.046875 L 1.484375 -5.046875 L 1.484375 -3.15625 L 3.703125 -3.15625 L 3.703125 -2.5625 L 1.484375 -2.5625 L 1.484375 -0.625 Z M 4.21875 -0.625 "/></g></g><g style="fill:#ffffff;fill-opacity:1;"><g transform="translate(105.243133, 52.675692)"><path style="stroke:none" d="M 3.734375 -2.109375 L 2.84375 -4.40625 C 2.8125 -4.476562 2.78125 -4.554688 2.75 -4.640625 C 2.726562 -4.734375 2.703125 -4.832031 2.671875 -4.9375 C 2.617188 -4.726562 2.5625 -4.550781 2.5 -4.40625 L 1.609375 -2.109375 Z M 5.328125 0 L 4.734375 0 C 4.671875 0 4.613281 -0.015625 4.5625 -0.046875 C 4.519531 -0.0859375 4.488281 -0.132812 4.46875 -0.1875 L 3.9375 -1.546875 L 1.40625 -1.546875 L 0.875 -0.1875 C 0.851562 -0.132812 0.820312 -0.0859375 0.78125 -0.046875 C 0.738281 -0.015625 0.679688 0 0.609375 0 L 0.03125 0 L 2.28125 -5.671875 L 3.0625 -5.671875 Z M 5.328125 0 "/></g></g><g style="fill:#ffffff;fill-opacity:1;"><g transform="translate(114.865391, 52.675692)"><path style="stroke:none" d="M 5.3125 -5.671875 L 5.3125 0 L 4.921875 0 C 4.867188 0 4.820312 -0.0078125 4.78125 -0.03125 C 4.738281 -0.0507812 4.695312 -0.0859375 4.65625 -0.140625 L 1.375 -4.40625 C 1.382812 -4.34375 1.390625 -4.28125 1.390625 -4.21875 C 1.390625 -4.15625 1.390625 -4.09375 1.390625 -4.03125 L 1.390625 0 L 0.71875 0 L 0.71875 -5.671875 L 1.125 -5.671875 C 1.15625 -5.671875 1.179688 -5.664062 1.203125 -5.65625 C 1.222656 -5.65625 1.242188 -5.648438 1.265625 -5.640625 C 1.285156 -5.628906 1.304688 -5.613281 1.328125 -5.59375 C 1.347656 -5.582031 1.367188 -5.5625 1.390625 -5.53125 L 4.65625 -1.265625 C 4.65625 -1.335938 4.648438 -1.40625 4.640625 -1.46875 C 4.640625 -1.53125 4.640625 -1.59375 4.640625 -1.65625 L 4.640625 -5.671875 Z M 5.3125 -5.671875 "/></g></g><g style="fill:#ffffff;fill-opacity:1;"><g transform="translate(125.171006, 52.675692)"><path style="stroke:none" d=""/></g></g><g style="fill:#ffffff;fill-opacity:1;"><g transform="translate(131.467332, 52.675692)"><path style="stroke:none" d="M 4.703125 -1.171875 C 4.742188 -1.171875 4.78125 -1.15625 4.8125 -1.125 L 5.109375 -0.796875 C 4.878906 -0.523438 4.597656 -0.3125 4.265625 -0.15625 C 3.941406 -0.0078125 3.546875 0.0625 3.078125 0.0625 C 2.671875 0.0625 2.300781 -0.00390625 1.96875 -0.140625 C 1.632812 -0.285156 1.347656 -0.484375 1.109375 -0.734375 C 0.878906 -0.992188 0.695312 -1.300781 0.5625 -1.65625 C 0.4375 -2.007812 0.375 -2.398438 0.375 -2.828125 C 0.375 -3.253906 0.441406 -3.644531 0.578125 -4 C 0.710938 -4.351562 0.898438 -4.660156 1.140625 -4.921875 C 1.390625 -5.179688 1.679688 -5.378906 2.015625 -5.515625 C 2.359375 -5.660156 2.734375 -5.734375 3.140625 -5.734375 C 3.546875 -5.734375 3.898438 -5.664062 4.203125 -5.53125 C 4.515625 -5.40625 4.789062 -5.234375 5.03125 -5.015625 L 4.78125 -4.65625 C 4.757812 -4.632812 4.734375 -4.613281 4.703125 -4.59375 C 4.679688 -4.570312 4.648438 -4.5625 4.609375 -4.5625 C 4.566406 -4.5625 4.507812 -4.585938 4.4375 -4.640625 C 4.375 -4.691406 4.285156 -4.75 4.171875 -4.8125 C 4.054688 -4.875 3.914062 -4.929688 3.75 -4.984375 C 3.582031 -5.035156 3.378906 -5.0625 3.140625 -5.0625 C 2.847656 -5.0625 2.582031 -5.007812 2.34375 -4.90625 C 2.101562 -4.8125 1.894531 -4.664062 1.71875 -4.46875 C 1.539062 -4.28125 1.398438 -4.046875 1.296875 -3.765625 C 1.203125 -3.492188 1.15625 -3.179688 1.15625 -2.828125 C 1.15625 -2.472656 1.207031 -2.15625 1.3125 -1.875 C 1.414062 -1.601562 1.550781 -1.367188 1.71875 -1.171875 C 1.894531 -0.984375 2.101562 -0.835938 2.34375 -0.734375 C 2.582031 -0.640625 2.84375 -0.59375 3.125 -0.59375 C 3.289062 -0.59375 3.441406 -0.601562 3.578125 -0.625 C 3.710938 -0.644531 3.835938 -0.675781 3.953125 -0.71875 C 4.066406 -0.757812 4.171875 -0.8125 4.265625 -0.875 C 4.367188 -0.9375 4.46875 -1.015625 4.5625 -1.109375 C 4.613281 -1.148438 4.660156 -1.171875 4.703125 -1.171875 Z M 4.703125 -1.171875 "/></g></g><g style="fill:#ffffff;fill-opacity:1;"><g transform="translate(141.018488, 52.675692)"><path style="stroke:none" d="M 2.90625 -0.609375 C 3.144531 -0.609375 3.351562 -0.644531 3.53125 -0.71875 C 3.71875 -0.800781 3.875 -0.910156 4 -1.046875 C 4.132812 -1.191406 4.234375 -1.363281 4.296875 -1.5625 C 4.367188 -1.757812 4.40625 -1.976562 4.40625 -2.21875 L 4.40625 -5.671875 L 5.15625 -5.671875 L 5.15625 -2.21875 C 5.15625 -1.894531 5.101562 -1.59375 5 -1.3125 C 4.894531 -1.03125 4.742188 -0.785156 4.546875 -0.578125 C 4.359375 -0.378906 4.125 -0.222656 3.84375 -0.109375 C 3.570312 0.00390625 3.257812 0.0625 2.90625 0.0625 C 2.5625 0.0625 2.25 0.00390625 1.96875 -0.109375 C 1.6875 -0.222656 1.445312 -0.378906 1.25 -0.578125 C 1.0625 -0.785156 0.914062 -1.03125 0.8125 -1.3125 C 0.707031 -1.59375 0.65625 -1.894531 0.65625 -2.21875 L 0.65625 -5.671875 L 1.421875 -5.671875 L 1.421875 -2.21875 C 1.421875 -1.988281 1.453125 -1.773438 1.515625 -1.578125 C 1.578125 -1.378906 1.671875 -1.207031 1.796875 -1.0625 C 1.929688 -0.914062 2.09375 -0.800781 2.28125 -0.71875 C 2.46875 -0.644531 2.675781 -0.609375 2.90625 -0.609375 Z M 2.90625 -0.609375 "/></g></g><g style="fill:#ffffff;fill-opacity:1;"><g transform="translate(151.102904, 52.675692)"><path style="stroke:none" d="M 3.9375 -0.640625 L 3.9375 0 L 0.71875 0 L 0.71875 -5.671875 L 1.484375 -5.671875 L 1.484375 -0.640625 Z M 3.9375 -0.640625 "/></g></g><g style="fill:#ffffff;fill-opacity:1;"><g transform="translate(159.433504, 52.675692)"><path style="stroke:none" d="M 4.546875 -5.015625 L 2.71875 -5.015625 L 2.71875 0 L 1.953125 0 L 1.953125 -5.015625 L 0.125 -5.015625 L 0.125 -5.671875 L 4.546875 -5.671875 Z M 4.546875 -5.015625 "/></g></g><g style="fill:#ffffff;fill-opacity:1;"><g transform="translate(168.372403, 52.675692)"><path style="stroke:none" d="M 2.90625 -0.609375 C 3.144531 -0.609375 3.351562 -0.644531 3.53125 -0.71875 C 3.71875 -0.800781 3.875 -0.910156 4 -1.046875 C 4.132812 -1.191406 4.234375 -1.363281 4.296875 -1.5625 C 4.367188 -1.757812 4.40625 -1.976562 4.40625 -2.21875 L 4.40625 -5.671875 L 5.15625 -5.671875 L 5.15625 -2.21875 C 5.15625 -1.894531 5.101562 -1.59375 5 -1.3125 C 4.894531 -1.03125 4.742188 -0.785156 4.546875 -0.578125 C 4.359375 -0.378906 4.125 -0.222656 3.84375 -0.109375 C 3.570312 0.00390625 3.257812 0.0625 2.90625 0.0625 C 2.5625 0.0625 2.25 0.00390625 1.96875 -0.109375 C 1.6875 -0.222656 1.445312 -0.378906 1.25 -0.578125 C 1.0625 -0.785156 0.914062 -1.03125 0.8125 -1.3125 C 0.707031 -1.59375 0.65625 -1.894531 0.65625 -2.21875 L 0.65625 -5.671875 L 1.421875 -5.671875 L 1.421875 -2.21875 C 1.421875 -1.988281 1.453125 -1.773438 1.515625 -1.578125 C 1.578125 -1.378906 1.671875 -1.207031 1.796875 -1.0625 C 1.929688 -0.914062 2.09375 -0.800781 2.28125 -0.71875 C 2.46875 -0.644531 2.675781 -0.609375 2.90625 -0.609375 Z M 2.90625 -0.609375 "/></g></g><g style="fill:#ffffff;fill-opacity:1;"><g transform="translate(178.456819, 52.675692)"><path style="stroke:none" d="M 2.296875 -2.921875 C 2.515625 -2.921875 2.707031 -2.945312 2.875 -3 C 3.050781 -3.050781 3.195312 -3.125 3.3125 -3.21875 C 3.425781 -3.320312 3.507812 -3.441406 3.5625 -3.578125 C 3.625 -3.722656 3.65625 -3.878906 3.65625 -4.046875 C 3.65625 -4.378906 3.539062 -4.628906 3.3125 -4.796875 C 3.09375 -4.972656 2.765625 -5.0625 2.328125 -5.0625 L 1.484375 -5.0625 L 1.484375 -2.921875 Z M 4.90625 0 L 4.234375 0 C 4.085938 0 3.984375 -0.0507812 3.921875 -0.15625 L 2.453125 -2.1875 C 2.410156 -2.25 2.363281 -2.289062 2.3125 -2.3125 C 2.257812 -2.34375 2.175781 -2.359375 2.0625 -2.359375 L 1.484375 -2.359375 L 1.484375 0 L 0.71875 0 L 0.71875 -5.671875 L 2.328125 -5.671875 C 2.679688 -5.671875 2.988281 -5.632812 3.25 -5.5625 C 3.507812 -5.488281 3.722656 -5.378906 3.890625 -5.234375 C 4.066406 -5.097656 4.195312 -4.929688 4.28125 -4.734375 C 4.363281 -4.546875 4.40625 -4.332031 4.40625 -4.09375 C 4.40625 -3.894531 4.367188 -3.707031 4.296875 -3.53125 C 4.234375 -3.351562 4.140625 -3.195312 4.015625 -3.0625 C 3.898438 -2.925781 3.753906 -2.804688 3.578125 -2.703125 C 3.410156 -2.609375 3.21875 -2.535156 3 -2.484375 C 3.101562 -2.429688 3.1875 -2.351562 3.25 -2.25 Z M 4.90625 0 "/></g></g><g style="fill:#ffffff;fill-opacity:1;"><g transform="translate(187.680123, 52.675692)"><path style="stroke:none" d="M 3.734375 -2.109375 L 2.84375 -4.40625 C 2.8125 -4.476562 2.78125 -4.554688 2.75 -4.640625 C 2.726562 -4.734375 2.703125 -4.832031 2.671875 -4.9375 C 2.617188 -4.726562 2.5625 -4.550781 2.5 -4.40625 L 1.609375 -2.109375 Z M 5.328125 0 L 4.734375 0 C 4.671875 0 4.613281 -0.015625 4.5625 -0.046875 C 4.519531 -0.0859375 4.488281 -0.132812 4.46875 -0.1875 L 3.9375 -1.546875 L 1.40625 -1.546875 L 0.875 -0.1875 C 0.851562 -0.132812 0.820312 -0.0859375 0.78125 -0.046875 C 0.738281 -0.015625 0.679688 0 0.609375 0 L 0.03125 0 L 2.28125 -5.671875 L 3.0625 -5.671875 Z M 5.328125 0 "/></g></g><g style="fill:#ffffff;fill-opacity:1;"><g transform="translate(197.302381, 52.675692)"><path style="stroke:none" d="M 3.9375 -0.640625 L 3.9375 0 L 0.71875 0 L 0.71875 -5.671875 L 1.484375 -5.671875 L 1.484375 -0.640625 Z M 3.9375 -0.640625 "/></g></g><g style="fill:#ffffff;fill-opacity:1;"><g transform="translate(205.63298, 52.675692)"><path style="stroke:none" d=""/></g></g><g style="fill:#ffffff;fill-opacity:1;"><g transform="translate(211.929306, 52.675692)"><path style="stroke:none" d="M 4.703125 -1.171875 C 4.742188 -1.171875 4.78125 -1.15625 4.8125 -1.125 L 5.109375 -0.796875 C 4.878906 -0.523438 4.597656 -0.3125 4.265625 -0.15625 C 3.941406 -0.0078125 3.546875 0.0625 3.078125 0.0625 C 2.671875 0.0625 2.300781 -0.00390625 1.96875 -0.140625 C 1.632812 -0.285156 1.347656 -0.484375 1.109375 -0.734375 C 0.878906 -0.992188 0.695312 -1.300781 0.5625 -1.65625 C 0.4375 -2.007812 0.375 -2.398438 0.375 -2.828125 C 0.375 -3.253906 0.441406 -3.644531 0.578125 -4 C 0.710938 -4.351562 0.898438 -4.660156 1.140625 -4.921875 C 1.390625 -5.179688 1.679688 -5.378906 2.015625 -5.515625 C 2.359375 -5.660156 2.734375 -5.734375 3.140625 -5.734375 C 3.546875 -5.734375 3.898438 -5.664062 4.203125 -5.53125 C 4.515625 -5.40625 4.789062 -5.234375 5.03125 -5.015625 L 4.78125 -4.65625 C 4.757812 -4.632812 4.734375 -4.613281 4.703125 -4.59375 C 4.679688 -4.570312 4.648438 -4.5625 4.609375 -4.5625 C 4.566406 -4.5625 4.507812 -4.585938 4.4375 -4.640625 C 4.375 -4.691406 4.285156 -4.75 4.171875 -4.8125 C 4.054688 -4.875 3.914062 -4.929688 3.75 -4.984375 C 3.582031 -5.035156 3.378906 -5.0625 3.140625 -5.0625 C 2.847656 -5.0625 2.582031 -5.007812 2.34375 -4.90625 C 2.101562 -4.8125 1.894531 -4.664062 1.71875 -4.46875 C 1.539062 -4.28125 1.398438 -4.046875 1.296875 -3.765625 C 1.203125 -3.492188 1.15625 -3.179688 1.15625 -2.828125 C 1.15625 -2.472656 1.207031 -2.15625 1.3125 -1.875 C 1.414062 -1.601562 1.550781 -1.367188 1.71875 -1.171875 C 1.894531 -0.984375 2.101562 -0.835938 2.34375 -0.734375 C 2.582031 -0.640625 2.84375 -0.59375 3.125 -0.59375 C 3.289062 -0.59375 3.441406 -0.601562 3.578125 -0.625 C 3.710938 -0.644531 3.835938 -0.675781 3.953125 -0.71875 C 4.066406 -0.757812 4.171875 -0.8125 4.265625 -0.875 C 4.367188 -0.9375 4.46875 -1.015625 4.5625 -1.109375 C 4.613281 -1.148438 4.660156 -1.171875 4.703125 -1.171875 Z M 4.703125 -1.171875 "/></g></g><g style="fill:#ffffff;fill-opacity:1;"><g transform="translate(221.480452, 52.675692)"><path style="stroke:none" d="M 3.734375 -2.109375 L 2.84375 -4.40625 C 2.8125 -4.476562 2.78125 -4.554688 2.75 -4.640625 C 2.726562 -4.734375 2.703125 -4.832031 2.671875 -4.9375 C 2.617188 -4.726562 2.5625 -4.550781 2.5 -4.40625 L 1.609375 -2.109375 Z M 5.328125 0 L 4.734375 0 C 4.671875 0 4.613281 -0.015625 4.5625 -0.046875 C 4.519531 -0.0859375 4.488281 -0.132812 4.46875 -0.1875 L 3.9375 -1.546875 L 1.40625 -1.546875 L 0.875 -0.1875 C 0.851562 -0.132812 0.820312 -0.0859375 0.78125 -0.046875 C 0.738281 -0.015625 0.679688 0 0.609375 0 L 0.03125 0 L 2.28125 -5.671875 L 3.0625 -5.671875 Z M 5.328125 0 "/></g></g><g style="fill:#ffffff;fill-opacity:1;"><g transform="translate(231.102719, 52.675692)"><path style="stroke:none" d="M 2.390625 -2.734375 C 2.609375 -2.734375 2.800781 -2.757812 2.96875 -2.8125 C 3.132812 -2.875 3.273438 -2.957031 3.390625 -3.0625 C 3.503906 -3.164062 3.59375 -3.289062 3.65625 -3.4375 C 3.71875 -3.582031 3.75 -3.738281 3.75 -3.90625 C 3.75 -4.269531 3.632812 -4.550781 3.40625 -4.75 C 3.1875 -4.957031 2.847656 -5.0625 2.390625 -5.0625 L 1.484375 -5.0625 L 1.484375 -2.734375 Z M 2.390625 -5.671875 C 2.753906 -5.671875 3.066406 -5.628906 3.328125 -5.546875 C 3.597656 -5.460938 3.816406 -5.34375 3.984375 -5.1875 C 4.160156 -5.03125 4.289062 -4.84375 4.375 -4.625 C 4.457031 -4.414062 4.5 -4.175781 4.5 -3.90625 C 4.5 -3.644531 4.453125 -3.40625 4.359375 -3.1875 C 4.273438 -2.96875 4.144531 -2.78125 3.96875 -2.625 C 3.789062 -2.46875 3.566406 -2.34375 3.296875 -2.25 C 3.035156 -2.164062 2.734375 -2.125 2.390625 -2.125 L 1.484375 -2.125 L 1.484375 0 L 0.71875 0 L 0.71875 -5.671875 Z M 2.390625 -5.671875 "/></g></g><g style="fill:#ffffff;fill-opacity:1;"><g transform="translate(240.120615, 52.675692)"><path style="stroke:none" d="M 1.484375 0 L 0.71875 0 L 0.71875 -5.671875 L 1.484375 -5.671875 Z M 1.484375 0 "/></g></g><g style="fill:#ffffff;fill-opacity:1;"><g transform="translate(246.606568, 52.675692)"><path style="stroke:none" d="M 4.546875 -5.015625 L 2.71875 -5.015625 L 2.71875 0 L 1.953125 0 L 1.953125 -5.015625 L 0.125 -5.015625 L 0.125 -5.671875 L 4.546875 -5.671875 Z M 4.546875 -5.015625 "/></g></g><g style="fill:#ffffff;fill-opacity:1;"><g transform="translate(255.545447, 52.675692)"><path style="stroke:none" d="M 3.734375 -2.109375 L 2.84375 -4.40625 C 2.8125 -4.476562 2.78125 -4.554688 2.75 -4.640625 C 2.726562 -4.734375 2.703125 -4.832031 2.671875 -4.9375 C 2.617188 -4.726562 2.5625 -4.550781 2.5 -4.40625 L 1.609375 -2.109375 Z M 5.328125 0 L 4.734375 0 C 4.671875 0 4.613281 -0.015625 4.5625 -0.046875 C 4.519531 -0.0859375 4.488281 -0.132812 4.46875 -0.1875 L 3.9375 -1.546875 L 1.40625 -1.546875 L 0.875 -0.1875 C 0.851562 -0.132812 0.820312 -0.0859375 0.78125 -0.046875 C 0.738281 -0.015625 0.679688 0 0.609375 0 L 0.03125 0 L 2.28125 -5.671875 L 3.0625 -5.671875 Z M 5.328125 0 "/></g></g><g style="fill:#ffffff;fill-opacity:1;"><g transform="translate(265.167715, 52.675692)"><path style="stroke:none" d="M 3.9375 -0.640625 L 3.9375 0 L 0.71875 0 L 0.71875 -5.671875 L 1.484375 -5.671875 L 1.484375 -0.640625 Z M 3.9375 -0.640625 "/></g></g></g></svg>