<svg xmlns="http://www.w3.org/2000/svg" xmlns:xlink="http://www.w3.org/1999/xlink" width="1397" zoomAndPan="magnify" viewBox="0 0 1047.75 167.999997" height="224" preserveAspectRatio="xMidYMid meet" version="1.2"><defs><clipPath id="eec48e5fbf"><path d="M 0 0.0195312 L 1047.5 0.0195312 L 1047.5 167.980469 L 0 167.980469 Z M 0 0.0195312 "/></clipPath></defs><g id="c919e66cd7"><g clip-rule="nonzero" clip-path="url(#eec48e5fbf)"><path style=" stroke:none;fill-rule:nonzero;fill:none;fill-opacity:1;" d="M 0 0.0195312 L 1047.5 0.0195312 L 1047.5 167.980469 L 0 167.980469 Z M 0 0.0195312 "/></g><g style="fill:#ffffff;fill-opacity:1;"><g transform="translate(34.946346, 122.042185)"><path style="stroke:none" d="M 41.53125 1.703125 C 34.96875 1.703125 29.269531 0.628906 24.4375 -1.515625 C 19.613281 -3.660156 15.640625 -6.59375 12.515625 -10.3125 C 9.398438 -14.03125 7.070312 -18.300781 5.53125 -23.125 C 3.988281 -27.957031 3.21875 -33.054688 3.21875 -38.421875 C 3.21875 -43.785156 3.988281 -48.863281 5.53125 -53.65625 C 7.070312 -58.445312 9.398438 -62.703125 12.515625 -66.421875 C 15.640625 -70.148438 19.613281 -73.066406 24.4375 -75.171875 C 29.269531 -77.285156 34.96875 -78.34375 41.53125 -78.34375 C 48.3125 -78.34375 54.097656 -77.1875 58.890625 -74.875 C 63.679688 -72.5625 67.484375 -69.34375 70.296875 -65.21875 C 73.117188 -61.101562 74.863281 -56.296875 75.53125 -50.796875 L 55.828125 -50.796875 C 55.285156 -54.742188 53.65625 -57.640625 50.9375 -59.484375 C 48.226562 -61.335938 44.960938 -62.265625 41.140625 -62.265625 C 35.035156 -62.265625 30.359375 -60.097656 27.109375 -55.765625 C 23.859375 -51.441406 22.234375 -45.660156 22.234375 -38.421875 C 22.234375 -31.109375 23.859375 -25.269531 27.109375 -20.90625 C 30.359375 -16.550781 35.035156 -14.375 41.140625 -14.375 C 44.960938 -14.375 48.210938 -15.3125 50.890625 -17.1875 C 53.578125 -19.070312 55.222656 -22.023438 55.828125 -26.046875 L 75.53125 -26.046875 C 74.863281 -20.546875 73.117188 -15.703125 70.296875 -11.515625 C 67.484375 -7.328125 63.679688 -4.078125 58.890625 -1.765625 C 54.097656 0.546875 48.3125 1.703125 41.53125 1.703125 Z M 41.53125 1.703125 "/></g></g><g style="fill:#ffffff;fill-opacity:1;"><g transform="translate(118.319146, 122.042185)"><path style="stroke:none" d="M 24.03125 0 L 6.03125 0 L 6.03125 -76.734375 L 24.03125 -76.734375 L 24.03125 -46.359375 L 53.203125 -46.359375 L 53.203125 -76.734375 L 71.203125 -76.734375 L 71.203125 0 L 53.203125 0 L 53.203125 -30.28125 L 24.03125 -30.28125 Z M 24.03125 0 "/></g></g><g style="fill:#ffffff;fill-opacity:1;"><g transform="translate(200.786819, 122.042185)"><path style="stroke:none" d="M 58.4375 0 L 6.03125 0 L 6.03125 -76.734375 L 58.4375 -76.734375 L 58.4375 -60.65625 L 24.03125 -60.65625 L 24.03125 -46.359375 L 55.109375 -46.359375 L 55.109375 -30.375 L 24.03125 -30.375 L 24.03125 -16.09375 L 58.4375 -16.09375 Z M 58.4375 0 "/></g></g><g style="fill:#ffffff;fill-opacity:1;"><g transform="translate(268.571302, 122.042185)"><path style="stroke:none" d="M 24.03125 0 L 6.03125 0 L 6.03125 -76.734375 L 35 -76.734375 L 47.671875 -21.53125 L 60.25 -76.734375 L 89.3125 -76.734375 L 89.3125 0 L 71.3125 0 L 71.3125 -62.359375 L 56.421875 0 L 38.921875 0 L 24.03125 -61.953125 Z M 24.03125 0 "/></g></g><g style="fill:#ffffff;fill-opacity:1;"><g transform="translate(369.040962, 122.042185)"><path style="stroke:none" d="M 24.03125 0 L 6.03125 0 L 6.03125 -76.734375 L 24.34375 -76.734375 L 53.8125 -30.171875 L 53.8125 -76.734375 L 71.8125 -76.734375 L 71.8125 0 L 53.5 0 L 24.03125 -46.875 Z M 24.03125 0 "/></g></g><g style="fill:#ffffff;fill-opacity:1;"><g transform="translate(451.910925, 122.042185)"><path style="stroke:none" d="M 24.03125 0 L 6.03125 0 L 6.03125 -76.734375 L 24.03125 -76.734375 Z M 24.03125 0 "/></g></g><g style="fill:#ffffff;fill-opacity:1;"><g transform="translate(487.110822, 122.042185)"><path style="stroke:none" d="M 40.4375 0 L 22.421875 0 L 22.421875 -60.65625 L 0.796875 -60.65625 L 0.796875 -76.734375 L 62.0625 -76.734375 L 62.0625 -60.65625 L 40.4375 -60.65625 Z M 40.4375 0 "/></g></g><g style="fill:#ffffff;fill-opacity:1;"><g transform="translate(554.995897, 122.042185)"><path style="stroke:none" d="M 59.640625 0 L 2.609375 0 L 2.609375 -12.171875 L 36.71875 -60.65625 L 4.734375 -60.65625 L 4.734375 -76.734375 L 59.4375 -76.734375 L 59.4375 -63.96875 L 25.953125 -16.09375 L 59.640625 -16.09375 Z M 59.640625 0 "/></g></g><g style="fill:#ffffff;fill-opacity:1;"><g transform="translate(652.659076, 118.743045)"><path style="stroke:none" d="M 8.484375 0 L 1.5625 0 L 29.65625 -74.453125 L 37.46875 -74.453125 L 65.578125 0 L 58.640625 0 L 51.125 -20.09375 L 16 -20.09375 Z M 33.5625 -67.53125 L 18.15625 -26.15625 L 48.984375 -26.15625 Z M 33.5625 -67.53125 "/></g></g><g style="fill:#ffffff;fill-opacity:1;"><g transform="translate(726.618244, 118.743045)"><path style="stroke:none" d="M 34.25 0 L 27.515625 0 L 27.515625 -68.40625 L 1.359375 -68.40625 L 1.359375 -74.453125 L 60.5 -74.453125 L 60.5 -68.40625 L 34.25 -68.40625 Z M 34.25 0 "/></g></g><g style="fill:#ffffff;fill-opacity:1;"><g transform="translate(795.308608, 118.743045)"><path style="stroke:none" d="M 48.59375 0 L 7.703125 0 L 7.703125 -74.453125 L 14.4375 -74.453125 L 14.4375 -6.046875 L 48.59375 -6.046875 Z M 48.59375 0 "/></g></g><g style="fill:#ffffff;fill-opacity:1;"><g transform="translate(852.192939, 118.743045)"><path style="stroke:none" d="M 8.484375 0 L 1.5625 0 L 29.65625 -74.453125 L 37.46875 -74.453125 L 65.578125 0 L 58.640625 0 L 51.125 -20.09375 L 16 -20.09375 Z M 33.5625 -67.53125 L 18.15625 -26.15625 L 48.984375 -26.15625 Z M 33.5625 -67.53125 "/></g></g><g style="fill:#ffffff;fill-opacity:1;"><g transform="translate(926.152095, 118.743045)"><path style="stroke:none" d="M 33.078125 0.96875 C 28.390625 0.96875 24 0.222656 19.90625 -1.265625 C 15.8125 -2.765625 12.378906 -5.140625 9.609375 -8.390625 C 6.847656 -11.640625 5.046875 -15.867188 4.203125 -21.078125 L 11.03125 -21.078125 C 11.738281 -17.046875 13.25 -13.859375 15.5625 -11.515625 C 17.875 -9.171875 20.625 -7.507812 23.8125 -6.53125 C 27 -5.5625 30.25 -5.078125 33.5625 -5.078125 C 39.488281 -5.078125 44.078125 -6.441406 47.328125 -9.171875 C 50.578125 -11.898438 52.203125 -15.671875 52.203125 -20.484375 C 52.203125 -23.285156 51.613281 -25.578125 50.4375 -27.359375 C 49.269531 -29.148438 47.675781 -30.597656 45.65625 -31.703125 C 43.644531 -32.816406 41.382812 -33.710938 38.875 -34.390625 C 36.375 -35.078125 33.757812 -35.710938 31.03125 -36.296875 C 28.101562 -36.953125 25.222656 -37.664062 22.390625 -38.4375 C 19.566406 -39.21875 17 -40.273438 14.6875 -41.609375 C 12.375 -42.953125 10.535156 -44.757812 9.171875 -47.03125 C 7.804688 -49.3125 7.125 -52.238281 7.125 -55.8125 C 7.125 -59.84375 8.179688 -63.320312 10.296875 -66.25 C 12.410156 -69.175781 15.285156 -71.4375 18.921875 -73.03125 C 22.566406 -74.625 26.703125 -75.421875 31.328125 -75.421875 C 37.828125 -75.421875 43.351562 -73.8125 47.90625 -70.59375 C 52.457031 -67.375 55.320312 -62.125 56.5 -54.84375 L 50.0625 -54.84375 C 49.019531 -60.175781 46.820312 -63.929688 43.46875 -66.109375 C 40.125 -68.285156 36.039062 -69.375 31.21875 -69.375 C 26.144531 -69.375 21.984375 -68.203125 18.734375 -65.859375 C 15.484375 -63.523438 13.859375 -60.335938 13.859375 -56.296875 C 13.859375 -53.046875 14.800781 -50.523438 16.6875 -48.734375 C 18.570312 -46.953125 21.023438 -45.601562 24.046875 -44.6875 C 27.078125 -43.78125 30.285156 -42.9375 33.671875 -42.15625 C 36.722656 -41.5 39.726562 -40.75 42.6875 -39.90625 C 45.644531 -39.0625 48.359375 -37.890625 50.828125 -36.390625 C 53.304688 -34.898438 55.273438 -32.914062 56.734375 -30.4375 C 58.203125 -27.96875 58.9375 -24.75 58.9375 -20.78125 C 58.9375 -14.28125 56.738281 -9.03125 52.34375 -5.03125 C 47.957031 -1.03125 41.535156 0.96875 33.078125 0.96875 Z M 33.078125 0.96875 "/></g></g></g></svg>