<svg xmlns="http://www.w3.org/2000/svg" xmlns:xlink="http://www.w3.org/1999/xlink" zoomAndPan="magnify" preserveAspectRatio="xMidYMid meet" version="1.2" viewBox="313.58 0.46 602.88 687.23"><defs><clipPath id="944c4bc20d"><path d="M 0.886719 0 L 1229.113281 0 L 1229.113281 692 L 0.886719 692 Z M 0.886719 0 "/></clipPath><clipPath id="8bb619222a"><path d="M 313.546875 115 L 452 115 L 452 335 L 313.546875 335 Z M 313.546875 115 "/></clipPath><clipPath id="4eb15952db"><path d="M 767 306 L 916.425781 306 L 916.425781 538 L 767 538 Z M 767 306 "/></clipPath><clipPath id="82dacdc54d"><path d="M 549 99 L 916.425781 99 L 916.425781 418 L 549 418 Z M 549 99 "/></clipPath><clipPath id="ffc23eac2a"><path d="M 313.546875 314 L 402 314 L 402 452 L 313.546875 452 Z M 313.546875 314 "/></clipPath></defs><g id="b1c008c103"><g clip-rule="nonzero" clip-path="url(#944c4bc20d)"><path style=" stroke:none;fill-rule:nonzero;fill:none;fill-opacity:1;" d="M 0.886719 0 L 1229.113281 0 L 1229.113281 692 L 0.886719 692 Z M 0.886719 0 "/><path style=" stroke:none;fill-rule:nonzero;fill:none;fill-opacity:1;" d="M 0.886719 0 L 1229.113281 0 L 1229.113281 692 L 0.886719 692 Z M 0.886719 0 "/></g><g clip-rule="nonzero" clip-path="url(#8bb619222a)"><path style=" stroke:none;fill-rule:nonzero;fill:#ffbc2e;fill-opacity:1;" d="M 437.453125 333.289062 C 439.328125 334.527344 441.8125 334.300781 443.429688 332.738281 L 451.53125 324.917969 C 451.289062 324.601562 451.015625 324.320312 450.785156 324 C 426.910156 290.65625 373.484375 207.335938 364.136719 119.523438 C 363.746094 115.851562 359.667969 114.007812 356.605469 116.074219 C 330.664062 133.566406 313.578125 163.1875 313.578125 196.832031 L 313.578125 248.695312 C 313.578125 250.300781 314.386719 251.804688 315.726562 252.691406 L 437.453125 333.289062 "/></g><g clip-rule="nonzero" clip-path="url(#4eb15952db)"><path style=" stroke:none;fill-rule:nonzero;fill:#5db3ff;fill-opacity:1;" d="M 908.335938 307.96875 L 769.148438 442.359375 C 766.941406 444.488281 767.273438 448.109375 769.828125 449.804688 L 900.035156 536.199219 C 902.429688 537.789062 905.765625 536.972656 907.003906 534.378906 C 913.0625 521.6875 916.460938 507.484375 916.460938 492.484375 L 916.460938 311.417969 C 916.460938 307.1875 911.382812 305.03125 908.335938 307.96875 "/></g><g clip-rule="nonzero" clip-path="url(#82dacdc54d)"><path style=" stroke:none;fill-rule:nonzero;fill:#acde50;fill-opacity:1;" d="M 819.070312 99.4375 L 758.472656 99.4375 C 757.230469 99.4375 756.035156 99.917969 755.140625 100.78125 L 551.160156 297.730469 C 548.957031 299.859375 549.285156 303.480469 551.839844 305.175781 L 719.289062 416.277344 C 721.164062 417.519531 723.652344 417.292969 725.269531 415.730469 L 819.058594 325.160156 C 821.265625 323.03125 820.933594 319.40625 818.378906 317.714844 L 735.316406 262.726562 C 732.757812 261.035156 732.425781 257.40625 734.632812 255.277344 L 764.128906 226.800781 C 765.746094 225.238281 768.230469 225.011719 770.109375 226.253906 L 856.714844 283.597656 C 858.589844 284.839844 861.074219 284.613281 862.695312 283.046875 L 915 232.542969 C 915.9375 231.640625 916.460938 230.398438 916.460938 229.097656 L 916.460938 196.832031 C 916.460938 143.042969 872.859375 99.4375 819.070312 99.4375 "/></g><path style=" stroke:none;fill-rule:nonzero;fill:#5db3ff;fill-opacity:1;" d="M 599.136719 182.40625 L 676.535156 107.679688 C 679.632812 104.683594 677.515625 99.4375 673.203125 99.4375 L 609.382812 99.4375 C 606.828125 99.4375 604.78125 101.4375 604.667969 103.988281 C 603.550781 129.03125 598.503906 153.882812 591.265625 177.566406 C 589.816406 182.308594 595.570312 185.851562 599.136719 182.40625 "/><g clip-rule="nonzero" clip-path="url(#ffc23eac2a)"><path style=" stroke:none;fill-rule:nonzero;fill:#acde50;fill-opacity:1;" d="M 399.804688 374.855469 C 402.011719 372.726562 401.679688 369.101562 399.121094 367.410156 L 321.019531 315.707031 C 317.835938 313.597656 313.578125 315.882812 313.578125 319.703125 L 313.578125 446.8125 C 313.578125 451.042969 318.660156 453.203125 321.707031 450.261719 L 399.804688 374.855469 "/></g><path style=" stroke:none;fill-rule:nonzero;fill:#ffbc2e;fill-opacity:1;" d="M 666.246094 440.640625 C 664.371094 439.398438 661.886719 439.628906 660.265625 441.191406 L 514.800781 581.640625 C 511.695312 584.636719 513.816406 589.882812 518.128906 589.882812 L 648.285156 589.882812 C 651.457031 589.882812 654.472656 591.273438 656.53125 593.691406 L 733.386719 683.863281 C 739.917969 691.53125 752.464844 686.90625 752.464844 676.832031 L 752.464844 600.71875 C 752.464844 594.734375 757.316406 589.882812 763.300781 589.882812 L 819.070312 589.882812 C 834.679688 589.882812 849.382812 586.148438 862.445312 579.597656 C 865.796875 577.917969 866.183594 573.304688 863.058594 571.230469 L 666.246094 440.640625 "/><path style=" stroke:none;fill-rule:nonzero;fill:#5db3ff;fill-opacity:1;" d="M 615.710938 407.109375 L 513.507812 339.304688 C 511.632812 338.058594 509.144531 338.285156 507.527344 339.851562 L 320.589844 520.332031 C 319.226562 521.648438 318.710938 523.679688 319.355469 525.46875 C 332.875 563.019531 368.769531 589.882812 410.972656 589.882812 L 432.863281 589.882812 C 434.105469 589.882812 435.296875 589.398438 436.195312 588.539062 L 616.390625 414.554688 C 618.59375 412.425781 618.265625 408.804688 615.710938 407.109375 "/><path style=" stroke:none;fill-rule:nonzero;fill:#fb4d48;fill-opacity:1;" d="M 483.824219 129.9375 C 463.824219 129.9375 447.609375 113.722656 447.609375 93.71875 C 447.609375 73.722656 463.824219 57.507812 483.824219 57.507812 C 503.820312 57.507812 520.035156 73.722656 520.035156 93.71875 C 520.035156 113.722656 503.820312 129.9375 483.824219 129.9375 Z M 390.773438 98.945312 C 393.046875 186.285156 449.960938 274.558594 473.636719 307.625 C 478.640625 314.613281 488.957031 314.671875 493.960938 307.6875 C 518.09375 274 576.941406 182.707031 576.941406 93.585938 C 576.941406 42.160156 535.261719 0.472656 483.839844 0.464844 C 429.480469 0.449219 389.425781 47.0625 390.773438 98.945312 "/></g></svg>